<svg width="117" height="29" viewBox="0 0 117 29" fill="none" xmlns="http://www.w3.org/2000/svg">
<mask id="mask0_214_785" style="mask-type:luminance" maskUnits="userSpaceOnUse" x="0" y="0" width="117" height="29">
<path d="M116.931 0.400024H0.26355V28.4H116.931V0.400024Z" fill="white"/>
</mask>
<g mask="url(#mask0_214_785)">
<path fill-rule="evenodd" clip-rule="evenodd" d="M4.03658 4.98402C3.88258 5.14652 3.89259 5.39602 4.05459 5.55142L24.0616 24.7579C24.2226 24.9133 24.4826 24.9231 24.6526 24.7751C27.5856 22.2125 29.4276 18.5178 29.4276 14.4101C29.4276 6.67262 22.8936 0.400024 14.8336 0.400024C10.5546 0.400024 6.70558 2.16772 4.03658 4.98402ZM1.53558 8.62902C1.46158 8.78552 1.49957 8.96902 1.62557 9.09052L20.3746 27.0893C20.5016 27.2108 20.6926 27.2466 20.8556 27.1757C21.2886 26.9871 21.7106 26.7787 22.1196 26.5519C22.3626 26.4171 22.3996 26.0985 22.2016 25.9078L2.85659 7.33682C2.65759 7.14612 2.32557 7.18192 2.18557 7.41542C1.94957 7.80832 1.73258 8.21322 1.53558 8.62902ZM0.398584 13.7829C0.310584 13.6986 0.263577 13.5825 0.272577 13.4635C0.310577 12.9066 0.383573 12.3586 0.487573 11.8213C0.550573 11.4992 0.96057 11.3874 1.20257 11.6191L17.7406 27.496C17.9816 27.7277 17.8656 28.1214 17.5296 28.1815C16.9706 28.2819 16.3996 28.3516 15.8196 28.3888C15.6956 28.3967 15.5746 28.3519 15.4866 28.2676L0.398584 13.7829ZM1.41357 17.6925C1.11157 17.4032 0.625566 17.6525 0.736566 18.0476C2.08057 22.8617 6.02958 26.6527 11.0446 27.9434C11.4556 28.0494 11.7156 27.5825 11.4146 27.2933L1.41357 17.6925ZM59.0666 8.10983C60.1126 8.10983 60.9606 7.29282 60.9606 6.28492C60.9606 5.27702 60.1126 4.46002 59.0666 4.46002C58.0206 4.46002 57.1726 5.27702 57.1726 6.28492C57.1726 7.29282 58.0206 8.10983 59.0666 8.10983ZM42.8436 24.0249V4.46112H46.2096V21.1625H55.2846V24.0249H42.8436ZM66.8006 16.0418V24.0249H63.5436V10.1595H66.7596V12.5361L66.8006 12.5098C67.1276 11.7658 67.6545 11.1443 68.3805 10.6453C69.1075 10.1376 70.0346 9.88383 71.1606 9.88383C72.1606 9.88383 73.0686 10.0983 73.8866 10.5272C74.7036 10.9473 75.3576 11.5644 75.8486 12.3785C76.3386 13.1926 76.5846 14.1905 76.5846 15.3722V24.0249H73.3276V15.8055C73.3276 14.7551 73.0366 13.9585 72.4556 13.4158C71.8836 12.8643 71.1156 12.5886 70.1526 12.5886C69.5346 12.5886 68.9716 12.7112 68.4626 12.9562C67.9536 13.2013 67.5496 13.5777 67.2496 14.0854C66.9506 14.5931 66.8006 15.2452 66.8006 16.0418ZM96.2896 23.7885C97.0346 24.0949 97.8886 24.2481 98.8506 24.2481C99.6416 24.2481 100.318 24.1518 100.882 23.9592C101.445 23.7579 101.908 23.4909 102.272 23.1583C102.644 22.8257 102.939 22.4624 103.157 22.0685H103.212V24.0249H106.333V14.4793C106.333 13.8053 106.196 13.1882 105.924 12.628C105.651 12.0678 105.256 11.582 104.738 11.1706C104.229 10.7591 103.612 10.444 102.885 10.2252C102.158 9.99762 101.34 9.88383 100.432 9.88383C99.1876 9.88383 98.1106 10.0895 97.2026 10.5009C96.3026 10.9036 95.5986 11.4463 95.0896 12.1291C94.5816 12.8118 94.3046 13.5821 94.2586 14.4399H97.4065C97.4426 14.0373 97.5886 13.6784 97.8426 13.3633C98.0966 13.0482 98.4426 12.803 98.8786 12.628C99.3146 12.4442 99.8186 12.3522 100.391 12.3522C100.964 12.3522 101.449 12.4442 101.849 12.628C102.258 12.8118 102.572 13.0613 102.789 13.3764C103.008 13.6915 103.117 14.0592 103.117 14.4793V14.5844C103.117 14.8995 103.003 15.1314 102.776 15.2803C102.558 15.4291 102.185 15.5385 101.659 15.6085C101.141 15.6785 100.432 15.7617 99.5326 15.858C98.7966 15.9368 98.0875 16.0549 97.4065 16.2125C96.7255 16.3701 96.1166 16.602 95.5806 16.9084C95.0536 17.2148 94.6356 17.6218 94.3266 18.1295C94.0176 18.6372 93.8636 19.2893 93.8636 20.0858C93.8636 21.005 94.0816 21.7753 94.5176 22.3967C94.9536 23.0095 95.5446 23.4734 96.2896 23.7885ZM101.563 21.4645C101.036 21.7359 100.387 21.8715 99.6146 21.8715C98.8326 21.8715 98.2105 21.714 97.7476 21.3989C97.2836 21.075 97.0526 20.6329 97.0526 20.0727C97.0526 19.6351 97.1796 19.2805 97.4336 19.0092C97.6976 18.7378 98.0426 18.5234 98.4696 18.3658C98.8966 18.2082 99.3596 18.0989 99.8596 18.0376C100.223 17.9851 100.577 17.9325 100.923 17.88C101.268 17.8187 101.59 17.7618 101.89 17.7093C102.19 17.6481 102.444 17.5868 102.653 17.5255C102.871 17.4642 103.03 17.3986 103.13 17.3285V18.8779C103.13 19.4206 102.999 19.9196 102.735 20.3747C102.481 20.8212 102.09 21.1844 101.563 21.4645ZM109.174 24.0249V10.1595H112.308V12.4442H112.349C112.612 11.6564 113.026 11.0568 113.589 10.6453C114.161 10.2252 114.911 10.0151 115.837 10.0151C116.065 10.0151 116.269 10.0239 116.45 10.0414C116.642 10.0501 116.8 10.0589 116.928 10.0676V12.8906C116.81 12.8731 116.6 12.8512 116.301 12.8249C116.001 12.7987 115.683 12.7855 115.347 12.7855C114.811 12.7855 114.32 12.9037 113.875 13.1401C113.43 13.3764 113.076 13.7397 112.812 14.2298C112.558 14.7113 112.431 15.3197 112.431 16.0549V24.0249H109.174ZM57.4316 24.0249V10.1595H60.6886V24.0249H57.4316ZM82.0006 23.4078C83.0456 24.0293 84.2856 24.34 85.7215 24.34C86.8296 24.34 87.8376 24.1474 88.7466 23.7623C89.6636 23.3684 90.4266 22.83 91.0356 22.1473C91.6446 21.4558 92.0396 20.6592 92.2215 19.7576H89.1556C89.0186 20.169 88.7966 20.5323 88.4876 20.8474C88.1876 21.1538 87.8106 21.3945 87.3566 21.5696C86.9026 21.7446 86.3756 21.8322 85.7756 21.8322C84.9676 21.8322 84.2726 21.6571 83.6906 21.307C83.1186 20.9568 82.6826 20.471 82.3826 19.8495C82.1106 19.2775 81.9616 18.6297 81.9366 17.9063H92.4116V17.0659C92.4116 15.998 92.2486 15.0264 91.9216 14.1511C91.5946 13.267 91.1305 12.5054 90.5315 11.8664C89.9315 11.2187 89.2096 10.7198 88.3646 10.3696C87.5286 10.0195 86.5976 9.84443 85.5716 9.84443C84.2356 9.84443 83.0556 10.1552 82.0286 10.7767C81.0016 11.3981 80.1976 12.256 79.6166 13.3501C79.0346 14.4443 78.7446 15.696 78.7446 17.1053C78.7446 18.5059 79.0256 19.7532 79.5896 20.8474C80.1526 21.9328 80.9566 22.7863 82.0006 23.4078ZM88.8556 14.2298C88.5556 13.6346 88.1286 13.1751 87.5746 12.8512C87.0206 12.5273 86.3666 12.3654 85.6126 12.3654C84.8676 12.3654 84.2176 12.5273 83.6636 12.8512C83.1186 13.1751 82.6916 13.6346 82.3826 14.2298C82.1626 14.6609 82.0226 15.1511 81.9646 15.7004H89.2736C89.2156 15.1511 89.0756 14.6609 88.8556 14.2298Z" fill="white"/>
</g>
</svg>
