<svg width="389" height="411" viewBox="0 0 389 411" fill="none" xmlns="http://www.w3.org/2000/svg">
<g opacity="0.1">
<path fill-rule="evenodd" clip-rule="evenodd" d="M562.599 19.5638C572.102 7.93089 581.62 -3.71902 591.014 -15.5094L591.005 -15.5009C590.362 -15.8405 589.78 -16.1521 589.238 -16.4418C587.988 -17.1104 586.956 -17.6625 585.899 -18.1732C582.316 -19.901 578.734 -21.6294 575.151 -23.3578C554.736 -33.2074 530.233 -43.8069 509.766 -53.5589C503.528 -81.568 489.622 -142.432 489.622 -142.432C489.622 -142.432 435.994 -115.247 408.911 -102.221L389.099 -190.915L307.638 -150.993L226.91 -191C226.91 -191 213.391 -131.803 206.8 -102.655L307.638 -150.993L408.911 -102.221C440.798 -87.0483 477.656 -68.2647 509.766 -53.5589C512.041 -43.3624 514.879 -28.6333 517.016 -18.3144C522.083 6.16127 527.178 31.4598 534.284 55.2025C543.617 43.4875 553.101 31.1895 562.599 19.5638Z" fill="#51B749"/>
<path d="M489.341 251.96L489.403 251.961C484.77 228.959 479.426 206.166 473.916 183.357C470.509 169.253 467.117 155.211 464.108 142.178C449.246 160.885 434.058 179.963 418.781 199.153C405.182 216.235 391.513 233.406 377.942 250.479C413.579 250.576 453.69 251.951 489.341 251.96Z" fill="#51B749"/>
<path d="M504.549 339.795H510.004C507.006 325.877 503.836 312.164 500.67 298.464L500.667 298.454C497.139 283.19 492.62 267.45 489.341 251.96C468.61 281.156 444.187 308.326 421.931 336.357C420.399 338.289 418.825 339.276 416.255 339.276C380.151 339.206 307.945 339.463 307.945 339.463L363.73 410.252L417.106 343.505C419.234 340.808 421.506 339.71 424.978 339.727C444.865 339.829 464.747 339.816 484.631 339.803H484.659C491.288 339.799 497.919 339.795 504.549 339.795Z" fill="#51B749"/>
<path d="M349.472 288.102L349.492 288.078C358.147 277.219 369.372 261.407 377.942 250.479L237.862 251.373C244.428 259.674 251.569 268.849 258.778 278.11L258.78 278.113C268.68 290.832 307.945 339.463 307.945 339.463C307.945 339.463 336.645 304.187 349.472 288.102Z" fill="#51B749"/>
<path d="M81.5881 55.1071L151.483 142.603C161.738 97.6433 171.635 50.8963 181.695 6.80452C148.275 22.7875 114.585 38.2621 81.5881 55.1071Z" fill="#51B749"/>
<path d="M206.8 -102.655L125.91 -141.64C119.138 -112.339 113.597 -82.5243 105.528 -53.5589C105.528 -53.5589 173.381 -86.0425 206.8 -102.655Z" fill="#51B749"/>
<path d="M105.528 -53.5589L24.6968 -14.9052L81.5881 55.1071C81.5881 55.1071 97.4994 -17.6458 105.528 -53.5589Z" fill="#51B749"/>
<path d="M489.403 251.961L579.525 252.454C573.955 228.36 565.019 188.645 558.7 164.73C555.328 168.953 493.033 247.417 489.403 251.961Z" fill="#51B749"/>
<path d="M558.7 164.73L615.991 94.1541C588.929 81.0994 561.389 68.2743 534.284 55.2025C536.401 64.5198 558.7 164.73 558.7 164.73Z" fill="#51B749"/>
<path d="M81.5881 55.1071L0 94.3583C18.4519 118.198 37.7672 141.308 56.6377 164.801C64.5936 131.256 81.5881 55.1071 81.5881 55.1071Z" fill="#51B749"/>
<path d="M36.007 252.573L126.346 251.936C103.292 222.74 80.0638 193.699 56.6377 164.801L36.007 252.573Z" fill="#51B749"/>
<path d="M186.353 251.952C203.855 251.683 221.323 251.414 237.862 251.373C209.021 215.221 180.231 178.644 151.483 142.603C143.841 175.427 133.826 219.069 126.346 251.936C144.111 251.927 167.552 252.241 186.353 251.952Z" fill="#51B749"/>
<path d="M105.715 339.803L196.053 339.786L126.346 251.936L105.715 339.803Z" fill="#51B749"/>
<path d="M250.888 408.927C251.25 409.335 251.633 409.766 252.041 410.234L307.945 339.463L196.053 339.786C196.053 339.786 225.004 376.663 238.679 393.8L238.695 393.82L238.897 394.073C242.218 398.235 245.538 402.396 248.858 406.558C249.474 407.335 250.133 408.077 250.878 408.915L250.879 408.917L250.888 408.927Z" fill="#51B749"/>
<path d="M433.173 6.4386C438.072 27.9094 464.108 142.178 464.108 142.178C487.464 113.109 511.966 85.1007 534.284 55.2025C501.068 38.0682 467.248 21.8042 433.173 6.4386Z" fill="#51B749"/>
<path d="M408.911 -102.221L307.647 -54.4099L433.173 6.4386L408.911 -102.221Z" fill="#51B749"/>
<path d="M206.8 -102.655L181.695 6.80452L307.647 -54.4099L206.8 -102.655Z" fill="#51B749"/>
</g>
</svg>
