<svg viewBox="0 0 277 602" fill="none" xmlns="http://www.w3.org/2000/svg">
<g opacity="0.1">
<path fill-rule="evenodd" clip-rule="evenodd" d="M562.599 210.564C572.102 198.931 581.62 187.281 591.014 175.491L591.005 175.499C590.362 175.16 589.78 174.848 589.238 174.558C587.988 173.89 586.956 173.337 585.899 172.827C582.316 171.099 578.734 169.371 575.151 167.642C554.736 157.793 530.233 147.193 509.766 137.441C503.528 109.432 489.622 48.5682 489.622 48.5682C489.622 48.5682 435.994 75.7534 408.911 88.7791L389.099 0.0851028L307.638 40.0066L226.91 0C226.91 0 213.391 59.1966 206.8 88.3453L307.638 40.0066L408.911 88.7791C440.798 103.952 477.656 122.735 509.766 137.441C512.041 147.638 514.879 162.367 517.016 172.686C522.083 197.161 527.178 222.46 534.284 246.203C543.617 234.488 553.101 222.189 562.599 210.564Z" fill="#51B749"/>
<path d="M489.341 442.96L489.403 442.961C484.77 419.959 479.426 397.166 473.916 374.357C470.509 360.253 467.117 346.211 464.108 333.178C449.246 351.885 434.058 370.963 418.781 390.153C405.182 407.235 391.513 424.406 377.942 441.479C413.579 441.576 453.69 442.951 489.341 442.96Z" fill="#51B749"/>
<path d="M504.549 530.795H510.004C507.006 516.877 503.836 503.164 500.67 489.464L500.667 489.454C497.139 474.19 492.62 458.45 489.341 442.96C468.61 472.156 444.187 499.326 421.931 527.357C420.399 529.289 418.825 530.276 416.255 530.276C380.151 530.206 307.945 530.463 307.945 530.463L363.73 601.252L417.106 534.505C419.234 531.808 421.506 530.71 424.978 530.727C444.865 530.829 464.747 530.816 484.631 530.803H484.659C491.288 530.799 497.919 530.795 504.549 530.795Z" fill="#51B749"/>
<path d="M349.472 479.102L349.492 479.078C358.147 468.219 369.372 452.407 377.942 441.479L237.862 442.373C244.428 450.674 251.569 459.849 258.778 469.11L258.78 469.113C268.68 481.832 307.945 530.463 307.945 530.463C307.945 530.463 336.645 495.187 349.472 479.102Z" fill="#51B749"/>
<path d="M81.5881 246.107L151.483 333.603C161.738 288.643 171.635 241.896 181.695 197.805C148.275 213.787 114.585 229.262 81.5881 246.107Z" fill="#51B749"/>
<path d="M206.8 88.3453L125.91 49.3596C119.138 78.6606 113.597 108.476 105.528 137.441C105.528 137.441 173.381 104.958 206.8 88.3453Z" fill="#51B749"/>
<path d="M105.528 137.441L24.6968 176.095L81.5881 246.107C81.5881 246.107 97.4994 173.354 105.528 137.441Z" fill="#51B749"/>
<path d="M489.403 442.961L579.525 443.454C573.955 419.36 565.019 379.645 558.7 355.73C555.328 359.953 493.033 438.417 489.403 442.961Z" fill="#51B749"/>
<path d="M558.7 355.73L615.991 285.154C588.929 272.099 561.389 259.274 534.284 246.203C536.401 255.52 558.7 355.73 558.7 355.73Z" fill="#51B749"/>
<path d="M81.5881 246.107L0 285.358C18.4519 309.198 37.7672 332.308 56.6377 355.801C64.5936 322.256 81.5881 246.107 81.5881 246.107Z" fill="#51B749"/>
<path d="M36.007 443.573L126.346 442.936C103.292 413.74 80.0638 384.699 56.6377 355.801L36.007 443.573Z" fill="#51B749"/>
<path d="M186.353 442.952C203.855 442.683 221.323 442.414 237.862 442.373C209.021 406.221 180.231 369.644 151.483 333.603C143.841 366.427 133.826 410.069 126.346 442.936C144.111 442.927 167.552 443.241 186.353 442.952Z" fill="#51B749"/>
<path d="M105.715 530.803L196.053 530.786L126.346 442.936L105.715 530.803Z" fill="#51B749"/>
<path d="M250.888 599.927C251.25 600.335 251.633 600.766 252.041 601.234L307.945 530.463L196.053 530.786C196.053 530.786 225.004 567.663 238.679 584.8L238.695 584.82L238.897 585.073C242.218 589.235 245.538 593.396 248.858 597.558C249.474 598.335 250.133 599.077 250.878 599.915L250.879 599.917L250.888 599.927Z" fill="#51B749"/>
<path d="M433.173 197.439C438.072 218.909 464.108 333.178 464.108 333.178C487.464 304.109 511.966 276.101 534.284 246.203C501.068 229.068 467.248 212.804 433.173 197.439Z" fill="#51B749"/>
<path d="M408.911 88.7791L307.647 136.59L433.173 197.439L408.911 88.7791Z" fill="#51B749"/>
<path d="M206.8 88.3453L181.695 197.805L307.647 136.59L206.8 88.3453Z" fill="#51B749"/>
</g>
</svg>
