<svg width="403" height="384" viewBox="0 0 403 384" fill="none" xmlns="http://www.w3.org/2000/svg">
<g opacity="0.1">
<path fill-rule="evenodd" clip-rule="evenodd" d="M349.599 210.564C359.102 198.931 368.62 187.281 378.014 175.491L378.005 175.499C377.362 175.16 376.78 174.848 376.238 174.558C374.988 173.89 373.956 173.337 372.899 172.827C369.316 171.099 365.734 169.371 362.151 167.642C341.736 157.793 317.233 147.193 296.766 137.441C290.528 109.432 276.622 48.5682 276.622 48.5682C276.622 48.5682 222.994 75.7534 195.911 88.7791L176.099 0.0851028L94.6385 40.0066L13.9097 0C13.9097 0 0.391495 59.1966 -6.20009 88.3453L94.6385 40.0066L195.911 88.7791C227.798 103.952 264.656 122.735 296.766 137.441C299.041 147.638 301.879 162.367 304.016 172.686C309.083 197.161 314.178 222.46 321.284 246.203C330.617 234.488 340.101 222.189 349.599 210.564Z" fill="#51B749"/>
<path d="M276.341 442.96L276.403 442.961C271.77 419.959 266.426 397.166 260.916 374.357C257.509 360.253 254.117 346.211 251.108 333.178C236.246 351.885 221.058 370.963 205.781 390.153C192.182 407.235 178.513 424.406 164.942 441.479C200.579 441.576 240.69 442.951 276.341 442.96Z" fill="#51B749"/>
<path d="M291.549 530.795H297.004C294.006 516.877 290.836 503.164 287.67 489.464L287.667 489.454C284.139 474.19 279.62 458.45 276.341 442.96C255.61 472.156 231.187 499.326 208.931 527.357C207.399 529.289 205.825 530.276 203.255 530.276C167.151 530.206 94.9446 530.463 94.9446 530.463L150.73 601.252L204.106 534.505C206.234 531.808 208.506 530.71 211.978 530.727C231.865 530.829 251.747 530.816 271.631 530.803H271.659C278.288 530.799 284.919 530.795 291.549 530.795Z" fill="#51B749"/>
<path d="M136.472 479.102L136.492 479.078C145.147 468.219 156.372 452.407 164.942 441.479L24.8624 442.373C31.4281 450.674 38.5692 459.849 45.7779 469.11L45.7795 469.113C55.6797 481.832 94.9446 530.463 94.9446 530.463C94.9446 530.463 123.645 495.187 136.472 479.102Z" fill="#51B749"/>
<path d="M-131.412 246.107L-61.517 333.603C-51.2621 288.643 -41.3646 241.896 -31.3054 197.805C-64.7253 213.787 -98.4152 229.262 -131.412 246.107Z" fill="#51B749"/>
<path d="M-6.20009 88.3453L-87.0903 49.3596C-93.862 78.6606 -99.4028 108.476 -107.472 137.441C-107.472 137.441 -39.6194 104.958 -6.20009 88.3453Z" fill="#51B749"/>
<path d="M-107.472 137.441L-188.303 176.095L-131.412 246.107C-131.412 246.107 -115.501 173.354 -107.472 137.441Z" fill="#51B749"/>
<path d="M276.403 442.961L366.525 443.454C360.955 419.36 352.019 379.645 345.7 355.73C342.328 359.953 280.033 438.417 276.403 442.961Z" fill="#51B749"/>
<path d="M345.7 355.73L402.991 285.154C375.929 272.099 348.389 259.274 321.284 246.203C323.401 255.52 345.7 355.73 345.7 355.73Z" fill="#51B749"/>
<path d="M-131.412 246.107L-213 285.358C-194.548 309.198 -175.233 332.308 -156.362 355.801C-148.406 322.256 -131.412 246.107 -131.412 246.107Z" fill="#51B749"/>
<path d="M-176.993 443.573L-86.6545 442.936C-109.708 413.74 -132.936 384.699 -156.362 355.801L-176.993 443.573Z" fill="#51B749"/>
<path d="M-26.6472 442.952C-9.14528 442.683 8.32343 442.414 24.8624 442.373C-3.97896 406.221 -32.7692 369.644 -61.517 333.603C-69.1592 366.427 -79.1739 410.069 -86.6545 442.936C-68.8885 442.927 -45.4476 443.241 -26.6472 442.952Z" fill="#51B749"/>
<path d="M-107.285 530.803L-16.9465 530.786L-86.6545 442.936L-107.285 530.803Z" fill="#51B749"/>
<path d="M37.888 599.927C38.2502 600.335 38.6328 600.766 39.0406 601.234L94.9446 530.463L-16.9465 530.786C-16.9465 530.786 12.0045 567.663 25.6792 584.8L25.6954 584.82L25.8972 585.073C29.2177 589.235 32.5381 593.396 35.8577 597.558C36.4743 598.335 37.1332 599.077 37.8778 599.915L37.8793 599.917L37.888 599.927Z" fill="#51B749"/>
<path d="M220.173 197.439C225.072 218.909 251.108 333.178 251.108 333.178C274.464 304.109 298.966 276.101 321.284 246.203C288.068 229.068 254.248 212.804 220.173 197.439Z" fill="#51B749"/>
<path d="M195.911 88.7791L94.6468 136.59L220.173 197.439L195.911 88.7791Z" fill="#51B749"/>
<path d="M-6.20009 88.3453L-31.3054 197.805L94.6468 136.59L-6.20009 88.3453Z" fill="#51B749"/>
</g>
</svg>
