<svg viewBox="0 0 426 386" fill="none" xmlns="http://www.w3.org/2000/svg">
<g opacity="0.1">
<path fill-rule="evenodd" clip-rule="evenodd" d="M372.599 210.564C382.102 198.931 391.62 187.281 401.014 175.491L401.005 175.499C400.362 175.16 399.78 174.848 399.238 174.558C397.988 173.89 396.956 173.337 395.899 172.827C392.316 171.099 388.734 169.371 385.151 167.642C364.736 157.793 340.233 147.193 319.766 137.441C313.528 109.432 299.622 48.5682 299.622 48.5682C299.622 48.5682 245.994 75.7534 218.911 88.7791L199.099 0.0851028L117.638 40.0066L36.9097 0C36.9097 0 23.3915 59.1966 16.7999 88.3453L117.638 40.0066L218.911 88.7791C250.798 103.952 287.656 122.735 319.766 137.441C322.041 147.638 324.879 162.367 327.016 172.686C332.083 197.161 337.178 222.46 344.284 246.203C353.617 234.488 363.101 222.189 372.599 210.564Z" fill="#51B749"/>
<path d="M299.341 442.96L299.403 442.961C294.77 419.959 289.426 397.166 283.916 374.357C280.509 360.253 277.117 346.211 274.108 333.178C259.246 351.885 244.058 370.963 228.781 390.153C215.182 407.235 201.513 424.406 187.942 441.479C223.579 441.576 263.69 442.951 299.341 442.96Z" fill="#51B749"/>
<path d="M314.549 530.795H320.004C317.006 516.877 313.836 503.164 310.67 489.464L310.667 489.454C307.139 474.19 302.62 458.45 299.341 442.96C278.61 472.156 254.187 499.326 231.931 527.357C230.399 529.289 228.825 530.276 226.255 530.276C190.151 530.206 117.945 530.463 117.945 530.463L173.73 601.252L227.106 534.505C229.234 531.808 231.506 530.71 234.978 530.727C254.865 530.829 274.747 530.816 294.631 530.803H294.659C301.288 530.799 307.919 530.795 314.549 530.795Z" fill="#51B749"/>
<path d="M159.472 479.102L159.492 479.078C168.147 468.219 179.372 452.407 187.942 441.479L47.8624 442.373C54.4281 450.674 61.5692 459.849 68.7779 469.11L68.7795 469.113C78.6797 481.832 117.945 530.463 117.945 530.463C117.945 530.463 146.645 495.187 159.472 479.102Z" fill="#51B749"/>
<path d="M-108.412 246.107L-38.517 333.603C-28.2621 288.643 -18.3646 241.896 -8.30544 197.805C-41.7253 213.787 -75.4152 229.262 -108.412 246.107Z" fill="#51B749"/>
<path d="M16.7999 88.3453L-64.0903 49.3596C-70.862 78.6606 -76.4028 108.476 -84.4725 137.441C-84.4725 137.441 -16.6194 104.958 16.7999 88.3453Z" fill="#51B749"/>
<path d="M-84.4725 137.441L-165.303 176.095L-108.412 246.107C-108.412 246.107 -92.5006 173.354 -84.4725 137.441Z" fill="#51B749"/>
<path d="M299.403 442.961L389.525 443.454C383.955 419.36 375.019 379.645 368.7 355.73C365.328 359.953 303.033 438.417 299.403 442.961Z" fill="#51B749"/>
<path d="M368.7 355.73L425.991 285.154C398.929 272.099 371.389 259.274 344.284 246.203C346.401 255.52 368.7 355.73 368.7 355.73Z" fill="#51B749"/>
<path d="M-108.412 246.107L-190 285.358C-171.548 309.198 -152.233 332.308 -133.362 355.801C-125.406 322.256 -108.412 246.107 -108.412 246.107Z" fill="#51B749"/>
<path d="M-153.993 443.573L-63.6545 442.936C-86.7078 413.74 -109.936 384.699 -133.362 355.801L-153.993 443.573Z" fill="#51B749"/>
<path d="M-3.64723 442.952C13.8547 442.683 31.3234 442.414 47.8624 442.373C19.021 406.221 -9.76923 369.644 -38.517 333.603C-46.1592 366.427 -56.1739 410.069 -63.6545 442.936C-45.8885 442.927 -22.4476 443.241 -3.64723 442.952Z" fill="#51B749"/>
<path d="M-84.2853 530.803L6.05348 530.786L-63.6545 442.936L-84.2853 530.803Z" fill="#51B749"/>
<path d="M60.888 599.927C61.2502 600.335 61.6328 600.766 62.0406 601.234L117.945 530.463L6.05348 530.786C6.05348 530.786 35.0045 567.663 48.6792 584.8L48.6954 584.82L48.8972 585.073C52.2177 589.235 55.5381 593.396 58.8577 597.558C59.4743 598.335 60.1332 599.077 60.8778 599.915L60.8793 599.917L60.888 599.927Z" fill="#51B749"/>
<path d="M243.173 197.439C248.072 218.909 274.108 333.178 274.108 333.178C297.464 304.109 321.966 276.101 344.284 246.203C311.068 229.068 277.248 212.804 243.173 197.439Z" fill="#51B749"/>
<path d="M218.911 88.7791L117.647 136.59L243.173 197.439L218.911 88.7791Z" fill="#51B749"/>
<path d="M16.7999 88.3453L-8.30544 197.805L117.647 136.59L16.7999 88.3453Z" fill="#51B749"/>
</g>
</svg>
