<svg width="156" height="27" viewBox="0 0 156 27" fill="none" xmlns="http://www.w3.org/2000/svg">
<mask id="mask0_214_765" style="mask-type:luminance" maskUnits="userSpaceOnUse" x="0" y="0" width="157" height="27">
<path d="M156.049 0.400024H0.0487061V26.4H156.049V0.400024Z" fill="white"/>
</mask>
<g mask="url(#mask0_214_765)">
<path d="M21.6967 11.3611L11.4967 17.1037L0.5737 10.9681L0.0487061 11.2519V15.7063L11.4967 22.1257L21.6967 16.405V18.7632L11.4967 24.5058L0.5737 18.3701L0.0487061 18.654V19.4182L11.4967 25.8377L22.9227 19.4182V14.9639L22.3967 14.68L11.4967 20.7938L1.2747 15.0731V12.7149L11.4967 18.4356L22.9227 12.0161V7.62733L22.3537 7.29982L11.4967 13.3917L1.79971 7.97672L11.4967 2.53982L19.4637 7.01602L20.1647 6.62292V6.07702L11.4967 1.20792L0.0487061 7.62733V8.32603L11.4967 14.7455L21.6967 9.00292V11.3611Z" fill="white"/>
<path d="M44.3093 22.1959V2.58817H41.2883V9.92477C41.2883 10.0339 41.2223 10.1213 41.1133 10.165C41.0033 10.2086 40.8943 10.165 40.8283 10.0994C39.8003 8.89847 38.2023 8.22157 36.4513 8.22157C32.7083 8.22157 29.7753 11.3659 29.7753 15.3835C29.7753 17.3486 30.4533 19.1609 31.7013 20.4928C32.9483 21.8249 34.6343 22.5453 36.4513 22.5453C38.1803 22.5453 39.7783 21.8249 40.8283 20.5802C40.8943 20.4928 41.0253 20.4711 41.1133 20.4928C41.2223 20.5366 41.2883 20.6239 41.2883 20.7331V22.1959H44.3093ZM37.1073 19.816C34.7003 19.816 32.8173 17.8726 32.8173 15.3835C32.8173 12.8943 34.7003 10.951 37.1073 10.951C39.5153 10.951 41.3983 12.8943 41.3983 15.3835C41.3983 17.8726 39.5153 19.816 37.1073 19.816Z" fill="white"/>
<path d="M60.4601 22.1968V8.55002H57.4611V9.92562C57.4611 10.0348 57.3951 10.1221 57.2861 10.1658C57.1761 10.2095 57.0671 10.1658 57.0011 10.0785C55.9941 8.87752 54.4181 8.20072 52.6241 8.20072C48.8801 8.20072 45.9471 11.3449 45.9471 15.3625C45.9471 19.3801 48.8801 22.5243 52.6241 22.5243C54.3531 22.5243 55.9511 21.8038 57.0011 20.5374C57.0671 20.4501 57.1981 20.4282 57.2861 20.4501C57.3951 20.4937 57.4611 20.581 57.4611 20.6902V22.175H60.4601V22.1968ZM53.3021 19.8169C50.8941 19.8169 49.0121 17.8735 49.0121 15.3844C49.0121 12.8952 50.8941 10.9518 53.3021 10.9518C55.7101 10.9518 57.5921 12.8952 57.5921 15.3844C57.5921 17.8735 55.7101 19.8169 53.3021 19.8169Z" fill="white"/>
<path d="M86.1387 22.1968V8.55002H83.1407V9.92562C83.1407 10.0348 83.0747 10.1221 82.9647 10.1658C82.8557 10.2095 82.7467 10.1658 82.6807 10.0785C81.6737 8.87752 80.0977 8.20072 78.3027 8.20072C74.5377 8.20072 71.6267 11.3449 71.6267 15.3844C71.6267 19.4238 74.5597 22.5462 78.3027 22.5462C80.0317 22.5462 81.6297 21.8256 82.6807 20.5592C82.7467 20.4718 82.8777 20.4501 82.9647 20.4718C83.0747 20.5156 83.1407 20.6029 83.1407 20.7121V22.1968H86.1387ZM78.9817 19.8169C76.5737 19.8169 74.6917 17.8735 74.6917 15.3844C74.6917 12.8952 76.5737 10.9518 78.9817 10.9518C81.3897 10.9518 83.2717 12.8952 83.2717 15.3844C83.2717 17.8735 81.3897 19.8169 78.9817 19.8169Z" fill="white"/>
<path d="M91.6277 20.5802C91.6487 20.5802 91.6927 20.5584 91.7147 20.5584C91.7807 20.5584 91.8677 20.602 91.9117 20.6458C92.9407 21.8466 94.5387 22.5235 96.2897 22.5235C100.033 22.5235 102.966 19.3793 102.966 15.3616C102.966 13.3965 102.287 11.5842 101.04 10.2523C99.7917 8.92042 98.1067 8.19983 96.2897 8.19983C94.5607 8.19983 92.9627 8.92042 91.9117 10.165C91.8457 10.2523 91.7367 10.2741 91.6277 10.2523C91.5177 10.2086 91.4517 10.1213 91.4517 10.0121V2.58822H88.4317V22.1959H91.4517V20.8204C91.4517 20.7112 91.5177 20.6239 91.6277 20.5802ZM91.3207 15.3835C91.3207 12.8943 93.2037 10.951 95.6107 10.951C98.0187 10.951 99.9007 12.8943 99.9007 15.3835C99.9007 17.8726 98.0187 19.816 95.6107 19.816C93.2037 19.816 91.3207 17.8509 91.3207 15.3835Z" fill="white"/>
<path d="M111.703 11.3475C111.987 11.3475 112.25 11.3693 112.425 11.413V8.31244C112.315 8.29064 112.119 8.26884 111.922 8.26884C110.346 8.26884 108.901 9.07674 108.135 10.3649C108.069 10.4741 107.96 10.5178 107.85 10.4741C107.741 10.4523 107.653 10.3431 107.653 10.2339V8.55264H104.654V22.2213H107.675V16.1949C107.675 13.2035 109.207 11.3475 111.703 11.3475Z" fill="white"/>
<path d="M117.395 8.55155H114.33V22.2202H117.395V8.55155Z" fill="white"/>
<path d="M115.816 2.61015C114.787 2.61015 113.955 3.43985 113.955 4.46605C113.955 5.49235 114.787 6.32205 115.816 6.32205C116.845 6.32205 117.676 5.49235 117.676 4.46605C117.676 3.43985 116.845 2.61015 115.816 2.61015Z" fill="white"/>
<path d="M126.369 8.20072C122.166 8.20072 119.123 11.2139 119.123 15.3844C119.123 17.415 119.846 19.2273 121.137 20.5374C122.451 21.8475 124.289 22.568 126.346 22.568C128.054 22.568 129.367 22.2406 131.863 20.4064L130.134 18.5941C128.907 19.4019 127.769 19.795 126.654 19.795C124.114 19.795 122.21 17.8954 122.21 15.3844C122.21 12.8733 124.114 10.9737 126.654 10.9737C127.857 10.9737 128.974 11.3667 130.09 12.1746L132.016 10.3623C129.762 8.44082 127.726 8.20072 126.369 8.20072Z" fill="white"/>
<path d="M137.183 16.1914C137.226 16.1477 137.293 16.1259 137.359 16.1259H137.38C137.446 16.1259 137.511 16.1695 137.577 16.2133L142.415 22.196H146.136L139.876 14.6411C139.787 14.5319 139.787 14.3791 139.897 14.2917L145.654 8.54922H141.955L136.986 13.5276C136.92 13.5931 136.812 13.6149 136.702 13.5931C136.614 13.5493 136.548 13.462 136.548 13.3529V2.61012H133.506V22.2178H136.527V16.8901C136.527 16.8246 136.548 16.7373 136.614 16.6936L137.183 16.1914Z" fill="white"/>
<path d="M151.057 22.546C153.531 22.546 156.048 21.0394 156.048 18.1791C156.048 16.3013 154.866 15.013 152.459 14.227L150.816 13.6811C149.7 13.3099 149.174 12.7859 149.174 12.0653C149.174 11.2356 149.919 10.6679 150.97 10.6679C151.977 10.6679 152.874 11.3229 153.443 12.4584L155.873 11.1482C154.976 9.31415 153.115 8.17875 150.97 8.17875C148.255 8.17875 146.286 9.92555 146.286 12.3054C146.286 14.2051 147.424 15.4715 149.765 16.214L151.452 16.7598C152.634 17.131 153.137 17.6113 153.137 18.3756C153.137 19.5329 152.064 19.9478 151.145 19.9478C149.919 19.9478 148.825 19.1616 148.3 17.8734L145.826 19.1835C146.636 21.2578 148.627 22.546 151.057 22.546Z" fill="white"/>
<path d="M68.8664 22.4149C69.8294 22.4149 70.6834 22.3276 71.1654 22.262V19.6418C70.7714 19.6855 70.0704 19.7291 69.6544 19.7291C68.4294 19.7291 67.4874 19.5108 67.4874 16.8688V11.2572C67.4874 11.1044 67.5974 10.9952 67.7504 10.9952H70.7054V8.52779H67.7504C67.5974 8.52779 67.4874 8.41869 67.4874 8.26579V4.33549H64.4674V8.28769C64.4674 8.44049 64.3574 8.54969 64.2044 8.54969H62.1034V11.017H64.2044C64.3574 11.017 64.4674 11.1262 64.4674 11.279V17.633C64.4674 22.4149 67.6624 22.4149 68.8664 22.4149Z" fill="white"/>
</g>
</svg>
