<svg width="133" height="43" viewBox="0 0 133 43" fill="none" xmlns="http://www.w3.org/2000/svg">
<g clip-path="url(#clip0_248_340)">
<path fill-rule="evenodd" clip-rule="evenodd" d="M128.414 15.0404C129.093 14.2095 129.773 13.3773 130.444 12.5352L130.443 12.5358C130.397 12.5115 130.356 12.4893 130.317 12.4686C130.228 12.4208 130.154 12.3814 130.078 12.3449C129.823 12.2215 129.567 12.098 129.311 11.9746C127.852 11.271 126.102 10.5139 124.64 9.81734C124.195 7.81669 123.202 3.46928 123.202 3.46928C123.202 3.46928 119.371 5.41108 117.436 6.34149L116.021 0.00620084L110.203 2.85774L104.436 0.00012207C104.436 0.00012207 103.471 4.22845 103 6.3105L110.203 2.85774L117.436 6.34149C119.714 7.42524 122.347 8.76693 124.64 9.81734C124.803 10.5457 125.006 11.5977 125.158 12.3348C125.52 14.0831 125.884 15.8901 126.392 17.586C127.058 16.7492 127.736 15.8708 128.414 15.0404Z" fill="#296436"/>
<path d="M123.181 31.6401L123.186 31.6402C122.855 29.9972 122.473 28.3691 122.08 26.7399C121.836 25.7325 121.594 24.7295 121.379 23.7985C120.318 25.1347 119.233 26.4975 118.141 27.8682C117.17 29.0884 116.194 30.3148 115.224 31.5344C117.77 31.5413 120.635 31.6395 123.181 31.6401Z" fill="#51B749"/>
<path d="M124.268 37.914H124.657C124.443 36.9199 124.217 35.9404 123.991 34.9619L123.99 34.9611C123.738 33.8708 123.416 32.7465 123.181 31.6401C121.701 33.7256 119.956 35.6663 118.366 37.6685C118.257 37.8064 118.145 37.877 117.961 37.877C115.382 37.872 110.225 37.8903 110.225 37.8903L114.209 42.9467L118.022 38.1791C118.174 37.9864 118.336 37.908 118.584 37.9092C120.005 37.9165 121.425 37.9156 122.845 37.9147H122.847C123.321 37.9144 123.794 37.914 124.268 37.914Z" fill="#296436"/>
<path d="M113.191 34.2217L113.192 34.22C113.81 33.4443 114.612 32.3149 115.224 31.5344L105.219 31.5982C105.688 32.1912 106.198 32.8465 106.713 33.508L106.713 33.5082C107.42 34.4167 110.225 37.8903 110.225 37.8903C110.225 37.8903 112.275 35.3706 113.191 34.2217Z" fill="#51B749"/>
<path d="M94.0562 17.5792L99.0487 23.8289C99.7812 20.6175 100.488 17.2784 101.207 14.129C98.8196 15.2707 96.4131 16.376 94.0562 17.5792Z" fill="#51B749"/>
<path d="M103 6.3105L97.2221 3.52581C96.7384 5.61874 96.3426 7.74839 95.7662 9.81734C95.7662 9.81734 100.613 7.49709 103 6.3105Z" fill="#296436"/>
<path d="M95.7662 9.81734L89.9926 12.5783L94.0562 17.5792C94.0562 17.5792 95.1928 12.3826 95.7662 9.81734Z" fill="#296436"/>
<path d="M123.186 31.6402L129.623 31.6754C129.225 29.9544 128.587 27.1176 128.136 25.4094C127.895 25.7111 123.445 31.3156 123.186 31.6402Z" fill="#296436"/>
<path d="M128.136 25.4094L132.228 20.3683C130.295 19.4358 128.328 18.5197 126.392 17.586C126.543 18.2515 128.136 25.4094 128.136 25.4094Z" fill="#296436"/>
<path d="M94.0562 17.5792L88.2285 20.3829C89.5465 22.0857 90.9262 23.7364 92.2741 25.4145C92.8423 23.0184 94.0562 17.5792 94.0562 17.5792Z" fill="#296436"/>
<path d="M90.8004 31.6839L97.2532 31.6384C95.6065 29.553 93.9474 27.4786 92.2741 25.4145L90.8004 31.6839Z" fill="#296436"/>
<path d="M101.539 31.6395C102.79 31.6203 104.037 31.6011 105.219 31.5982C103.159 29.0159 101.102 26.4033 99.0487 23.8289C98.5029 26.1735 97.7875 29.2908 97.2532 31.6384C98.5222 31.6378 100.197 31.6602 101.539 31.6395Z" fill="#51B749"/>
<path d="M95.7796 37.9147L102.232 37.9134L97.2532 31.6384L95.7796 37.9147Z" fill="#296436"/>
<path d="M106.149 42.852C106.175 42.8812 106.202 42.912 106.231 42.9454L110.225 37.8903L102.232 37.9134C102.232 37.9134 104.3 40.5475 105.277 41.7716L105.278 41.773L105.293 41.7911C105.53 42.0883 105.767 42.3855 106.004 42.6828C106.048 42.7383 106.095 42.7913 106.148 42.8512L106.148 42.8513L106.149 42.852Z" fill="#296436"/>
<path d="M119.169 14.1029C119.519 15.6365 121.379 23.7985 121.379 23.7985C123.047 21.7222 124.798 19.7216 126.392 17.586C124.019 16.3621 121.603 15.2004 119.169 14.1029Z" fill="#51B749"/>
<path d="M117.436 6.34149L110.203 9.75655L119.169 14.1029L117.436 6.34149Z" fill="#51B749"/>
<path d="M103 6.3105L101.207 14.129L110.203 9.75655L103 6.3105Z" fill="#51B749"/>
<path d="M117.903 20.5406C115.908 19.7041 113.646 19.7222 111.673 20.5631C112.563 19.1611 113.947 18.1423 115.585 17.7107L116.168 17.557C116.194 17.5501 116.203 17.5182 116.186 17.4983L115.805 17.0649C115.45 16.6617 114.881 16.5202 114.38 16.7144C112.974 17.2609 111.765 18.1864 110.877 19.3864V16.1731C110.877 15.9944 110.808 15.8217 110.685 15.6922L110.504 15.5023C110.348 15.3383 110.086 15.3383 109.929 15.5023L109.747 15.6922C109.624 15.8217 109.555 15.9944 109.555 16.1731V19.338C108.673 18.1656 107.484 17.26 106.102 16.7204C105.596 16.5227 105.022 16.6583 104.664 17.0658L104.283 17.4992C104.264 17.5199 104.275 17.551 104.301 17.5579L104.883 17.7115C106.522 18.1432 107.905 19.1619 108.796 20.564C106.822 19.7231 104.561 19.7049 102.565 20.5415C102.069 20.7487 101.759 21.2486 101.786 21.7856L101.814 22.3605C101.815 22.3873 101.844 22.4037 101.869 22.3899L102.394 22.0946C104.306 21.0181 106.63 20.9714 108.57 21.9133C107.371 22.1922 106.254 22.7456 105.305 23.5321C104.888 23.8774 104.731 24.4454 104.913 24.9548L105.107 25.4978C105.116 25.5229 105.148 25.5298 105.167 25.5108L105.584 25.0757C106.644 23.9689 108.043 23.2687 109.556 23.0788L109.555 31.6093H110.877L110.878 23.0745C112.406 23.2567 113.819 23.9594 114.888 25.0757L115.304 25.5108C115.323 25.5306 115.355 25.5237 115.364 25.4978L115.558 24.9548C115.741 24.4454 115.583 23.8765 115.166 23.5321C114.216 22.7447 113.1 22.1922 111.9 21.9133C113.84 20.9714 116.164 21.0181 118.077 22.0946L118.602 22.3899C118.625 22.4028 118.654 22.3873 118.656 22.3605L118.684 21.7856C118.711 21.2486 118.401 20.7487 117.906 20.5415" fill="#296436"/>
<circle cx="128.947" cy="4.43165" r="1.7677" stroke="#296436" stroke-width="0.216101"/>
<mask id="path-4-outside-1_248_340" maskUnits="userSpaceOnUse" x="128.17" y="3.07336" width="2" height="3" fill="black">
<rect fill="white" x="128.17" y="3.07336" width="2" height="3"/>
<path d="M128.646 5.07336V3.42694H129.202C129.331 3.42694 129.436 3.44892 129.519 3.49286C129.601 3.53627 129.662 3.59603 129.702 3.67214C129.742 3.74824 129.762 3.8348 129.762 3.9318C129.762 4.02881 129.742 4.11483 129.702 4.18986C129.662 4.26489 129.602 4.32385 129.52 4.36672C129.438 4.40906 129.333 4.43023 129.205 4.43023H128.755V4.25015H129.199C129.287 4.25015 129.357 4.23729 129.411 4.21157C129.465 4.18584 129.504 4.1494 129.528 4.10223C129.553 4.05453 129.565 3.99772 129.565 3.9318C129.565 3.86588 129.553 3.80827 129.528 3.75896C129.504 3.70965 129.464 3.6716 129.41 3.6448C129.356 3.61747 129.285 3.6038 129.196 3.6038H128.845V5.07336H128.646ZM129.421 4.33376L129.826 5.07336H129.594L129.196 4.33376H129.421Z"/>
</mask>
<path d="M128.646 5.07336V3.42694H129.202C129.331 3.42694 129.436 3.44892 129.519 3.49286C129.601 3.53627 129.662 3.59603 129.702 3.67214C129.742 3.74824 129.762 3.8348 129.762 3.9318C129.762 4.02881 129.742 4.11483 129.702 4.18986C129.662 4.26489 129.602 4.32385 129.52 4.36672C129.438 4.40906 129.333 4.43023 129.205 4.43023H128.755V4.25015H129.199C129.287 4.25015 129.357 4.23729 129.411 4.21157C129.465 4.18584 129.504 4.1494 129.528 4.10223C129.553 4.05453 129.565 3.99772 129.565 3.9318C129.565 3.86588 129.553 3.80827 129.528 3.75896C129.504 3.70965 129.464 3.6716 129.41 3.6448C129.356 3.61747 129.285 3.6038 129.196 3.6038H128.845V5.07336H128.646ZM129.421 4.33376L129.826 5.07336H129.594L129.196 4.33376H129.421Z" fill="#296436"/>
<path d="M128.646 5.07336H128.599V5.12026H128.646V5.07336ZM128.646 3.42694V3.38005H128.599V3.42694H128.646ZM129.519 3.49286L129.497 3.53426L129.497 3.53437L129.519 3.49286ZM129.702 3.67214L129.661 3.69381V3.69381L129.702 3.67214ZM129.702 4.18986L129.661 4.16795L129.702 4.18986ZM129.52 4.36672L129.541 4.40839L129.541 4.40828L129.52 4.36672ZM128.755 4.43023H128.708V4.47712H128.755V4.43023ZM128.755 4.25015V4.20326H128.708V4.25015H128.755ZM129.411 4.21157L129.391 4.16921L129.391 4.16929L129.411 4.21157ZM129.528 4.10223L129.487 4.0807L129.487 4.08088L129.528 4.10223ZM129.41 3.6448L129.389 3.68666L129.389 3.68683L129.41 3.6448ZM128.845 3.6038V3.55691H128.798V3.6038H128.845ZM128.845 5.07336V5.12026H128.892V5.07336H128.845ZM129.421 4.33376L129.462 4.31123L129.449 4.28687H129.421V4.33376ZM129.826 5.07336V5.12026H129.905L129.867 5.05083L129.826 5.07336ZM129.594 5.07336L129.553 5.09562L129.566 5.12026H129.594V5.07336ZM129.196 4.33376V4.28687H129.117L129.154 4.35601L129.196 4.33376ZM128.646 5.07336H128.693V3.42694H128.646H128.599V5.07336H128.646ZM128.646 3.42694V3.47384H129.202V3.42694V3.38005H128.646V3.42694ZM129.202 3.42694V3.47384C129.326 3.47384 129.423 3.49502 129.497 3.53425L129.519 3.49286L129.541 3.45147C129.449 3.40281 129.336 3.38005 129.202 3.38005V3.42694ZM129.519 3.49286L129.497 3.53437C129.572 3.57374 129.626 3.62691 129.661 3.69381L129.702 3.67214L129.744 3.65047C129.699 3.56515 129.631 3.49881 129.541 3.45136L129.519 3.49286ZM129.702 3.67214L129.661 3.69381C129.696 3.76239 129.715 3.84135 129.715 3.9318H129.762H129.808C129.808 3.82824 129.787 3.73409 129.744 3.65047L129.702 3.67214ZM129.762 3.9318H129.715C129.715 4.02227 129.696 4.10058 129.661 4.16795L129.702 4.18986L129.744 4.21177C129.787 4.12908 129.808 4.03534 129.808 3.9318H129.762ZM129.702 4.18986L129.661 4.16795C129.626 4.23382 129.572 4.28627 129.498 4.32517L129.52 4.36672L129.541 4.40828C129.631 4.36142 129.699 4.29596 129.744 4.21177L129.702 4.18986ZM129.52 4.36672L129.498 4.32505C129.425 4.3629 129.328 4.38334 129.205 4.38334V4.43023V4.47712C129.338 4.47712 129.45 4.45522 129.541 4.40839L129.52 4.36672ZM129.205 4.43023V4.38334H128.755V4.43023V4.47712H129.205V4.43023ZM128.755 4.43023H128.802V4.25015H128.755H128.708V4.43023H128.755ZM128.755 4.25015V4.29705H129.199V4.25015V4.20326H128.755V4.25015ZM129.199 4.25015V4.29705C129.291 4.29705 129.369 4.28371 129.431 4.25384L129.411 4.21157L129.391 4.16929C129.346 4.19087 129.283 4.20326 129.199 4.20326V4.25015ZM129.411 4.21157L129.431 4.25392C129.493 4.22437 129.541 4.18113 129.57 4.12358L129.528 4.10223L129.487 4.08088C129.468 4.11766 129.437 4.14731 129.391 4.16921L129.411 4.21157ZM129.528 4.10223L129.57 4.12376C129.599 4.06806 129.612 4.00353 129.612 3.9318H129.565H129.519C129.519 3.99191 129.507 4.04101 129.487 4.0807L129.528 4.10223ZM129.565 3.9318H129.612C129.612 3.86001 129.599 3.79496 129.57 3.73799L129.528 3.75896L129.487 3.77993C129.507 3.82157 129.519 3.87175 129.519 3.9318H129.565ZM129.528 3.75896L129.57 3.73799C129.541 3.67867 129.493 3.63365 129.431 3.60278L129.41 3.6448L129.389 3.68683C129.435 3.70956 129.467 3.74064 129.487 3.77993L129.528 3.75896ZM129.41 3.6448L129.431 3.60294C129.368 3.57112 129.289 3.55691 129.196 3.55691V3.6038V3.6507C129.28 3.6507 129.344 3.66382 129.389 3.68666L129.41 3.6448ZM129.196 3.6038V3.55691H128.845V3.6038V3.6507H129.196V3.6038ZM128.845 3.6038H128.798V5.07336H128.845H128.892V3.6038H128.845ZM128.845 5.07336V5.02647H128.646V5.07336V5.12026H128.845V5.07336ZM129.421 4.33376L129.38 4.35629L129.785 5.09589L129.826 5.07336L129.867 5.05083L129.462 4.31123L129.421 4.33376ZM129.826 5.07336V5.02647H129.594V5.07336V5.12026H129.826V5.07336ZM129.594 5.07336L129.636 5.05111L129.237 4.31151L129.196 4.33376L129.154 4.35601L129.553 5.09562L129.594 5.07336ZM129.196 4.33376V4.38065H129.421V4.33376V4.28687H129.196V4.33376Z" fill="#296436" mask="url(#path-4-outside-1_248_340)"/>
</g>
<path d="M8.88154 12.4896V17.9877L2.49306 17.9988C1.70656 17.9988 1.09443 17.7725 0.656655 17.3199C0.218885 16.8673 0 16.2477 0 15.4612C0 14.9493 0.0927479 14.4967 0.278244 14.1034C0.471159 13.7102 0.749403 13.3503 1.11298 13.0238L2.24821 13.8252C1.97368 14.0849 1.77334 14.3483 1.6472 14.6154C1.52107 14.8751 1.458 15.1533 1.458 15.4501C1.458 15.8211 1.55817 16.1142 1.7585 16.3294C1.96626 16.5371 2.25934 16.641 2.63775 16.641H7.42354V12.4896H8.88154ZM5.4981 11.6994C5.29776 11.6994 5.13082 11.6289 4.99726 11.4879C4.8637 11.3469 4.79692 11.1726 4.79692 10.9648C4.79692 10.7422 4.8637 10.5641 4.99726 10.4306C5.13082 10.2896 5.29776 10.2191 5.4981 10.2191C5.71327 10.2191 5.88764 10.2896 6.02119 10.4306C6.15475 10.5641 6.22153 10.7422 6.22153 10.9648C6.22153 11.1726 6.15104 11.3469 6.01007 11.4879C5.87651 11.6289 5.70585 11.6994 5.4981 11.6994ZM3.70621 11.6994C3.50587 11.6994 3.33893 11.6289 3.20537 11.4879C3.07181 11.3469 3.00503 11.1726 3.00503 10.9648C3.00503 10.7422 3.07181 10.5641 3.20537 10.4306C3.33893 10.2896 3.50587 10.2191 3.70621 10.2191C3.92138 10.2191 4.09575 10.2896 4.22931 10.4306C4.36286 10.5641 4.42964 10.7422 4.42964 10.9648C4.42964 11.1726 4.35915 11.3469 4.21818 11.4879C4.08462 11.6289 3.91396 11.6994 3.70621 11.6994Z" fill="black"/>
<path d="M13.3447 16.641C13.4931 16.641 13.5673 16.8636 13.5673 17.3088C13.5673 17.7614 13.4931 17.9877 13.3447 17.9877H10.5957V9.69603H12.0426V16.641H13.3447Z" fill="black"/>
<path d="M15.9826 12.4896V17.9877H13.3447C13.1963 17.9877 13.1222 17.7614 13.1222 17.3088C13.1222 16.8636 13.1963 16.641 13.3447 16.641H14.5246V12.4896H15.9826ZM16.1607 20.3249C15.9603 20.3249 15.7934 20.2545 15.6598 20.1135C15.5263 19.9725 15.4595 19.7981 15.4595 19.5904C15.4595 19.3678 15.5263 19.186 15.6598 19.045C15.7934 18.9115 15.9603 18.8447 16.1607 18.8447C16.3758 18.8447 16.5502 18.9115 16.6838 19.045C16.8173 19.186 16.8841 19.3678 16.8841 19.5904C16.8841 19.7981 16.8136 19.9725 16.6726 20.1135C16.5391 20.2545 16.3684 20.3249 16.1607 20.3249ZM14.3688 20.3249C14.1684 20.3249 14.0015 20.2545 13.8679 20.1135C13.7344 19.9725 13.6676 19.7981 13.6676 19.5904C13.6676 19.3678 13.7344 19.186 13.8679 19.045C14.0015 18.9115 14.1684 18.8447 14.3688 18.8447C14.5839 18.8447 14.7583 18.9115 14.8919 19.045C15.0254 19.186 15.0922 19.3678 15.0922 19.5904C15.0922 19.7981 15.0217 19.9725 14.8807 20.1135C14.7472 20.2545 14.5765 20.3249 14.3688 20.3249Z" fill="black"/>
<path d="M24.7029 16.641C24.8513 16.641 24.9255 16.8636 24.9255 17.3088C24.9255 17.7614 24.8513 17.9877 24.7029 17.9877H24.0574C23.2783 17.9877 22.7033 17.7948 22.3323 17.4089C21.9613 17.0231 21.7721 16.4444 21.7647 15.6727C21.453 15.7543 21.1266 15.7951 20.7852 15.7951C20.4217 15.7951 20.0841 15.7506 19.7724 15.6616V17.8987C19.7724 18.7074 19.5498 19.3418 19.1047 19.8018C18.6595 20.2693 18.0473 20.5104 17.2682 20.5253L17.0568 19.1786C17.502 19.2008 17.821 19.1118 18.0139 18.9115C18.2143 18.7185 18.3144 18.3809 18.3144 17.8987V12.4896H19.7724V14.3149C20.0841 14.4039 20.4217 14.4484 20.7852 14.4484C21.1266 14.4484 21.453 14.4076 21.7647 14.326V12.4896H23.2115V15.6171C23.2115 15.988 23.282 16.2515 23.423 16.4073C23.564 16.5631 23.8237 16.641 24.2021 16.641H24.7029ZM23.3896 11.6994C23.1893 11.6994 23.0223 11.6289 22.8888 11.4879C22.7552 11.3469 22.6884 11.1726 22.6884 10.9648C22.6884 10.7422 22.7552 10.5641 22.8888 10.4306C23.0223 10.2896 23.1893 10.2191 23.3896 10.2191C23.6048 10.2191 23.7791 10.2896 23.9127 10.4306C24.0463 10.5641 24.113 10.7422 24.113 10.9648C24.113 11.1726 24.0425 11.3469 23.9016 11.4879C23.768 11.6289 23.5974 11.6994 23.3896 11.6994ZM21.5977 11.6994C21.3974 11.6994 21.2304 11.6289 21.0969 11.4879C20.9633 11.3469 20.8965 11.1726 20.8965 10.9648C20.8965 10.7422 20.9633 10.5641 21.0969 10.4306C21.2304 10.2896 21.3974 10.2191 21.5977 10.2191C21.8129 10.2191 21.9873 10.2896 22.1208 10.4306C22.2544 10.5641 22.3211 10.7422 22.3211 10.9648C22.3211 11.1726 22.2507 11.3469 22.1097 11.4879C21.9761 11.6289 21.8055 11.6994 21.5977 11.6994Z" fill="black"/>
<path d="M35.8994 16.641C36.0478 16.641 36.122 16.8636 36.122 17.3088C36.122 17.7614 36.0478 17.9877 35.8994 17.9877H35.2316C34.586 17.9877 34.0629 17.817 33.6623 17.4757C33.2913 17.817 32.7348 17.9877 31.9928 17.9877C31.2879 17.9877 30.7277 17.8207 30.3122 17.4869C29.9338 17.8207 29.381 17.9877 28.6539 17.9877C27.949 17.9877 27.3888 17.8207 26.9733 17.4869C26.5949 17.8207 26.0273 17.9877 25.2704 17.9877H24.7029C24.5545 17.9877 24.4802 17.7614 24.4802 17.3088C24.4802 16.8636 24.5545 16.641 24.7029 16.641H25.1369C25.5301 16.641 25.7973 16.5668 25.9382 16.4184C26.0866 16.2626 26.1608 15.9955 26.1608 15.6171V13.5914H27.6188V15.6282C27.6188 15.9547 27.5929 16.2329 27.5409 16.4629C27.7487 16.5816 28.0418 16.641 28.4202 16.641C28.7095 16.641 28.9321 16.6113 29.0879 16.552C29.2438 16.4852 29.3514 16.3813 29.4107 16.2403C29.4775 16.0919 29.5109 15.8842 29.5109 15.6171V13.035H30.9577V15.6282C30.9577 15.9695 30.9281 16.2477 30.8687 16.4629C31.0839 16.5816 31.3807 16.641 31.7591 16.641C32.0485 16.641 32.2711 16.6113 32.4269 16.552C32.5827 16.4852 32.6903 16.3813 32.7496 16.2403C32.8164 16.0919 32.8498 15.8842 32.8498 15.6171V12.4785H34.2967V15.6282C34.2967 15.9695 34.267 16.2477 34.2076 16.4629C34.3931 16.5816 34.6194 16.641 34.8866 16.641H35.8994ZM30.2121 8.75C30.405 8.75 30.5608 8.81678 30.6795 8.95034C30.8056 9.07647 30.8687 9.23971 30.8687 9.44004C30.8687 9.64038 30.8056 9.80362 30.6795 9.92975C30.5608 10.0559 30.405 10.119 30.2121 10.119C30.0191 10.119 29.8596 10.0559 29.7335 9.92975C29.6148 9.80362 29.5554 9.64038 29.5554 9.44004C29.5554 9.23971 29.6148 9.07647 29.7335 8.95034C29.8596 8.81678 30.0191 8.75 30.2121 8.75ZM29.3217 10.2748C29.5294 10.2748 29.7001 10.3453 29.8336 10.4862C29.9746 10.6198 30.0451 10.7942 30.0451 11.0093C30.0451 11.2245 29.9746 11.4026 29.8336 11.5436C29.7001 11.6845 29.5294 11.755 29.3217 11.755C29.1213 11.755 28.9544 11.6845 28.8208 11.5436C28.6873 11.4026 28.6205 11.2245 28.6205 11.0093C28.6205 10.8016 28.6873 10.6272 28.8208 10.4862C28.9544 10.3453 29.1213 10.2748 29.3217 10.2748ZM31.1136 10.2748C31.3213 10.2748 31.492 10.3453 31.6255 10.4862C31.7665 10.6198 31.837 10.7942 31.837 11.0093C31.837 11.2245 31.7665 11.4026 31.6255 11.5436C31.492 11.6845 31.3213 11.755 31.1136 11.755C30.9132 11.755 30.7463 11.6845 30.6127 11.5436C30.4792 11.4026 30.4124 11.2245 30.4124 11.0093C30.4124 10.8016 30.4792 10.6272 30.6127 10.4862C30.7463 10.3453 30.9132 10.2748 31.1136 10.2748Z" fill="black"/>
<path d="M44.4343 16.641C44.5827 16.641 44.6569 16.8636 44.6569 17.3088C44.6569 17.7614 44.5827 17.9877 44.4343 17.9877H44.3453C43.633 17.9877 43.0542 17.8059 42.609 17.4423C42.1342 17.6204 41.6407 17.7577 41.1288 17.8541C40.6168 17.9432 40.1531 17.9877 39.7376 17.9877C39.0178 17.9877 38.3167 17.8319 37.634 17.5202C37.263 17.8319 36.7956 17.9877 36.2317 17.9877H35.8978C35.7494 17.9877 35.6752 17.7614 35.6752 17.3088C35.6752 16.8636 35.7494 16.641 35.8978 16.641H36.0536C36.2836 16.641 36.4617 16.5853 36.5878 16.474C36.7214 16.3627 36.8067 16.1884 36.8438 15.9509L36.8772 15.6616C36.9514 15.0828 37.0553 14.5449 37.1888 14.0478C37.3298 13.5506 37.5821 13.0906 37.9457 12.6677C38.3092 12.2447 38.8138 12.0333 39.4593 12.0333C40.0232 12.0333 40.5537 12.2114 41.0509 12.5675C41.5554 12.9162 41.9783 13.4022 42.3197 14.0255C42.661 14.6488 42.8799 15.3499 42.9763 16.129C43.1618 16.4703 43.5105 16.641 44.0225 16.641H44.4343ZM38.2907 16.296C38.543 16.4147 38.7841 16.5037 39.0141 16.5631C39.2441 16.615 39.489 16.641 39.7487 16.641C40.2978 16.641 40.8913 16.5482 41.5294 16.3627C41.4701 15.8359 41.3365 15.3462 41.1288 14.8936C40.921 14.4336 40.6725 14.07 40.3831 13.8029C40.1011 13.5284 39.8155 13.3911 39.5261 13.3911C39.2367 13.3911 39.0104 13.5247 38.8472 13.7918C38.6839 14.0515 38.5689 14.3483 38.5022 14.6822C38.4428 15.016 38.3871 15.4167 38.3352 15.8842C38.3278 15.9806 38.3204 16.0622 38.313 16.129C38.3055 16.1958 38.2981 16.2515 38.2907 16.296Z" fill="black"/>
<path d="M46.756 9.69603V17.9877H44.4299C44.2815 17.9877 44.2073 17.7614 44.2073 17.3088C44.2073 16.8636 44.2815 16.641 44.4299 16.641H45.298V9.69603H46.756Z" fill="black"/>
<path d="M48.5825 9.69603H50.0294V17.9877H48.5825V9.69603Z" fill="black"/>
<path d="M61.4183 16.641C61.5667 16.641 61.6409 16.8636 61.6409 17.3088C61.6409 17.7614 61.5667 17.9877 61.4183 17.9877H61.0955C60.1977 17.9877 59.5634 17.7243 59.1924 17.1975C58.5691 17.4869 57.9607 17.6315 57.3671 17.6315C56.8254 17.6315 56.3283 17.5091 55.8757 17.2643C55.4231 17.012 55.0632 16.6744 54.7961 16.2515C54.529 15.8211 54.3954 15.3462 54.3954 14.8268C54.3954 14.3149 54.529 13.8437 54.7961 13.4134C55.0632 12.983 55.4231 12.6454 55.8757 12.4006C56.3357 12.1483 56.8329 12.0221 57.3671 12.0221H58.7917V11.7328H60.2497V15.6171C60.2497 15.988 60.3202 16.2515 60.4612 16.4073C60.6021 16.5631 60.8618 16.641 61.2402 16.641H61.4183ZM57.4339 16.2848C57.8716 16.2848 58.3279 16.1476 58.8028 15.873C58.7954 15.8211 58.7917 15.7395 58.7917 15.6282V13.3688H57.4005C57.1185 13.3688 56.8588 13.4356 56.6214 13.5692C56.384 13.6953 56.1947 13.8697 56.0538 14.0923C55.9202 14.3149 55.8534 14.5597 55.8534 14.8268C55.8534 15.2349 56.0018 15.58 56.2986 15.8619C56.5954 16.1439 56.9738 16.2848 57.4339 16.2848ZM58.2686 11.1985C58.0683 11.1985 57.9013 11.1281 57.7677 10.9871C57.6342 10.8461 57.5674 10.6717 57.5674 10.464C57.5674 10.2414 57.6342 10.0633 57.7677 9.92975C57.9013 9.78878 58.0683 9.71829 58.2686 9.71829C58.4838 9.71829 58.6581 9.78878 58.7917 9.92975C58.9252 10.0633 58.992 10.2414 58.992 10.464C58.992 10.6717 58.9215 10.8461 58.7806 10.9871C58.647 11.1281 58.4763 11.1985 58.2686 11.1985ZM56.4767 11.1985C56.2764 11.1985 56.1094 11.1281 55.9759 10.9871C55.8423 10.8461 55.7755 10.6717 55.7755 10.464C55.7755 10.2414 55.8423 10.0633 55.9759 9.92975C56.1094 9.78878 56.2764 9.71829 56.4767 9.71829C56.6919 9.71829 56.8662 9.78878 56.9998 9.92975C57.1334 10.0633 57.2001 10.2414 57.2001 10.464C57.2001 10.6717 57.1296 10.8461 56.9887 10.9871C56.8551 11.1281 56.6845 11.1985 56.4767 11.1985Z" fill="black"/>
<path d="M67.6618 16.641C67.8102 16.641 67.8843 16.8636 67.8843 17.3088C67.8843 17.7614 67.8102 17.9877 67.6618 17.9877H61.418C61.2696 17.9877 61.1954 17.7614 61.1954 17.3088C61.1954 16.8636 61.2696 16.641 61.418 16.641H64.7903V16.552C64.7903 15.7655 64.6159 15.157 64.2672 14.7267C63.9184 14.2963 63.4213 14.0812 62.7758 14.0812L61.8743 13.1351L64.8014 10.1635L65.714 11.1095L63.9555 12.8791C64.6678 13.1017 65.2281 13.5432 65.6361 14.2036C66.0442 14.8565 66.2483 15.669 66.2483 16.641H67.6618Z" fill="black"/>
<path d="M72.1309 16.641C72.2793 16.641 72.3535 16.8636 72.3535 17.3088C72.3535 17.7614 72.2793 17.9877 72.1309 17.9877H71.5299C70.8843 17.9877 70.3575 17.817 69.9494 17.4757C69.5859 17.817 69.0368 17.9877 68.3022 17.9877H67.6567C67.5083 17.9877 67.4341 17.7614 67.4341 17.3088C67.4341 16.8636 67.5083 16.641 67.6567 16.641H68.1575C68.536 16.641 68.7957 16.5631 68.9366 16.4073C69.0776 16.2515 69.1481 15.988 69.1481 15.6171V12.4896H70.595V15.6282C70.595 15.925 70.5653 16.2032 70.5059 16.4629C70.6914 16.5816 70.9214 16.641 71.196 16.641H72.1309ZM69.7825 20.5475C69.5525 20.5475 69.3596 20.4659 69.2037 20.3027C69.0553 20.1469 68.9811 19.9502 68.9811 19.7128C68.9811 19.468 69.0553 19.2676 69.2037 19.1118C69.3596 18.956 69.5525 18.8781 69.7825 18.8781C70.0199 18.8781 70.2128 18.956 70.3612 19.1118C70.5171 19.2676 70.595 19.468 70.595 19.7128C70.595 19.9502 70.5171 20.1469 70.3612 20.3027C70.2054 20.4659 70.0125 20.5475 69.7825 20.5475Z" fill="black"/>
<path d="M81.7285 12.4785V15.6282C81.7285 16.4221 81.5393 17.0157 81.1609 17.4089C80.7899 17.7948 80.2112 17.9877 79.4247 17.9877C78.7198 17.9877 78.1596 17.8207 77.7441 17.4869C77.3657 17.8207 76.8129 17.9877 76.0858 17.9877C75.3809 17.9877 74.8207 17.8207 74.4052 17.4869C74.0267 17.8207 73.4591 17.9877 72.7023 17.9877H72.1347C71.9863 17.9877 71.9121 17.7614 71.9121 17.3088C71.9121 16.8636 71.9863 16.641 72.1347 16.641H72.5687C72.962 16.641 73.2291 16.5668 73.3701 16.4184C73.5185 16.2626 73.5927 15.9955 73.5927 15.6171V13.5914H75.0507V15.6282C75.0507 15.9547 75.0247 16.2329 74.9728 16.4629C75.1805 16.5816 75.4736 16.641 75.852 16.641C76.1414 16.641 76.364 16.6113 76.5198 16.552C76.6756 16.4852 76.7832 16.3813 76.8426 16.2403C76.9094 16.0919 76.9427 15.8842 76.9427 15.6171V13.035H78.3896V15.6282C78.3896 15.9695 78.3599 16.2477 78.3006 16.4629C78.5157 16.5816 78.8125 16.641 79.1909 16.641C79.4803 16.641 79.7029 16.6113 79.8587 16.552C80.0145 16.4852 80.1221 16.3813 80.1815 16.2403C80.2483 16.0919 80.2817 15.8842 80.2817 15.6171V12.4785H81.7285ZM77.6439 8.75C77.8368 8.75 77.9927 8.81678 78.1114 8.95034C78.2375 9.07647 78.3006 9.23971 78.3006 9.44004C78.3006 9.64038 78.2375 9.80362 78.1114 9.92975C77.9927 10.0559 77.8368 10.119 77.6439 10.119C77.451 10.119 77.2915 10.0559 77.1653 9.92975C77.0466 9.80362 76.9873 9.64038 76.9873 9.44004C76.9873 9.23971 77.0466 9.07647 77.1653 8.95034C77.2915 8.81678 77.451 8.75 77.6439 8.75ZM76.7535 10.2748C76.9613 10.2748 77.1319 10.3453 77.2655 10.4862C77.4065 10.6198 77.477 10.7942 77.477 11.0093C77.477 11.2245 77.4065 11.4026 77.2655 11.5436C77.1319 11.6845 76.9613 11.755 76.7535 11.755C76.5532 11.755 76.3863 11.6845 76.2527 11.5436C76.1191 11.4026 76.0524 11.2245 76.0524 11.0093C76.0524 10.8016 76.1191 10.6272 76.2527 10.4862C76.3863 10.3453 76.5532 10.2748 76.7535 10.2748ZM78.5454 10.2748C78.7532 10.2748 78.9238 10.3453 79.0574 10.4862C79.1984 10.6198 79.2689 10.7942 79.2689 11.0093C79.2689 11.2245 79.1984 11.4026 79.0574 11.5436C78.9238 11.6845 78.7532 11.755 78.5454 11.755C78.3451 11.755 78.1781 11.6845 78.0446 11.5436C77.911 11.4026 77.8443 11.2245 77.8443 11.0093C77.8443 10.8016 77.911 10.6272 78.0446 10.4862C78.1781 10.3453 78.3451 10.2748 78.5454 10.2748Z" fill="black"/>
<path d="M14.1912 30.266C14.3396 30.266 14.4138 30.4886 14.4138 30.9338C14.4138 31.3864 14.3396 31.6127 14.1912 31.6127H7.61844C6.72064 31.6127 6.08624 31.3493 5.71525 30.8225C5.09199 31.1119 4.48356 31.2565 3.88997 31.2565C3.34832 31.2565 2.8512 31.1341 2.39859 30.8893C1.94598 30.637 1.58611 30.2994 1.319 29.8765C1.05189 29.4461 0.918327 28.9712 0.918327 28.4518C0.918327 27.9399 1.05189 27.4687 1.319 27.0384C1.58611 26.608 1.94598 26.2704 2.39859 26.0256C2.85862 25.7733 3.35574 25.6471 3.88997 25.6471H5.31458V25.3578H6.77258V29.2421C6.77258 29.613 6.84307 29.8765 6.98404 30.0323C7.12502 30.1881 7.38472 30.266 14.0131 30.266H14.1912ZM3.95675 29.9098C4.39452 29.9098 4.85084 29.7726 5.32571 29.498C5.31829 29.4461 5.31458 29.3645 5.31458 29.2532V26.9938H3.92336C3.64141 26.9938 3.38171 27.0606 3.14428 27.1942C2.90684 27.3203 2.71764 27.4947 2.57666 27.7173C2.4431 27.9399 2.37633 28.1847 2.37633 28.4518C2.37633 28.8599 2.52472 29.205 2.82151 29.4869C3.11831 29.7689 3.49672 29.9098 3.95675 29.9098ZM4.79148 24.8235C4.59115 24.8235 4.4242 24.7531 4.29064 24.6121C4.15708 24.4711 4.09031 24.2967 4.09031 24.089C4.09031 23.8664 4.15708 23.6883 4.29064 23.5548C4.4242 23.4138 4.59115 23.3433 4.79148 23.3433C5.00666 23.3433 5.18102 23.4138 5.31458 23.5548C5.44814 23.6883 5.51492 23.8664 5.51492 24.089C5.51492 24.2967 5.44443 24.4711 5.30345 24.6121C5.16989 24.7531 4.99924 24.8235 4.79148 24.8235ZM2.99959 24.8235C2.79926 24.8235 2.63231 24.7531 2.49875 24.6121C2.3652 24.4711 2.29842 24.2967 2.29842 24.089C2.29842 23.8664 2.3652 23.6883 2.49875 23.5548C2.63231 23.4138 2.79926 23.3433 2.99959 23.3433C3.21477 23.3433 3.38913 23.4138 3.52269 23.5548C3.65625 23.6883 3.72303 23.8664 3.72303 24.089C3.72303 24.2967 3.65254 24.4711 3.51156 24.6121C3.378 24.7531 3.20735 24.8235 2.99959 24.8235Z" fill="black"/>
<path d="M18.665 30.266C18.8134 30.266 27.5126 30.4886 27.5126 30.9338C27.5126 31.3864 18.8134 31.6127 18.665 31.6127H18.064C17.4185 31.6127 16.8917 31.442 16.4836 31.1007C16.12 31.442 15.5709 31.6127 14.8364 31.6127H14.1909C14.0425 31.6127 7.71826 31.3864 7.71826 30.9338C7.71826 30.4886 14.0425 30.266 14.1909 30.266H14.6917C15.0701 30.266 15.3298 30.1881 15.4708 30.0323C15.6118 29.8765 15.6822 29.613 15.6822 29.2421V26.1146H17.1291V29.2532C17.1291 29.55 17.0994 29.8282 17.0401 30.0879C17.2256 30.2066 17.4556 30.266 17.7301 30.266H18.665ZM17.3072 33.9499C17.1068 33.9499 16.9399 33.8795 16.8063 33.7385C16.6728 33.5975 16.606 33.4231 16.606 33.2154C16.606 32.9928 16.6728 32.811 16.8063 32.67C16.9399 32.5365 17.1068 32.4697 17.3072 32.4697C17.5224 32.4697 17.6967 32.5365 17.8303 32.67C17.9638 32.811 18.0306 32.9928 18.0306 33.2154C18.0306 33.4231 17.9601 33.5975 17.8192 33.7385C17.6856 33.8795 17.5149 33.9499 17.3072 33.9499ZM15.5153 33.9499C15.315 33.9499 15.148 33.8795 15.0145 33.7385C14.8809 33.5975 14.8141 33.4231 14.8141 33.2154C14.8141 32.9928 14.8809 32.811 15.0145 32.67C15.148 32.5365 15.315 32.4697 15.5153 32.4697C15.7305 32.4697 15.9048 32.5365 16.0384 32.67C16.1719 32.811 16.2387 32.9928 16.2387 33.2154C16.2387 33.4231 16.1682 33.5975 16.0273 33.7385C15.8937 33.8795 15.723 33.9499 15.5153 33.9499Z" fill="black"/>
<path d="M30.8554 25.6583C31.5157 25.6583 32.1241 25.892 32.6806 26.3595C33.2445 26.8269 33.6823 27.4613 33.9939 28.2626C34.313 29.064 34.454 29.9395 34.4169 30.8893C33.9049 31.1267 33.3484 31.3085 32.7474 31.4346C32.1538 31.5533 31.6159 31.6127 31.1336 31.6127C30.4139 31.6127 29.7127 31.4569 29.0301 31.1452C28.6591 31.4569 28.1916 31.6127 27.6277 31.6127H18.6688C18.5204 31.6127 18.4462 31.3864 18.4462 30.9338C18.4462 30.4886 18.5204 30.266 18.6688 30.266H27.4497C27.6797 30.266 27.8577 30.2103 27.9839 30.099C28.1174 29.9877 28.2028 29.8134 28.2399 29.5759L28.2733 29.2866C28.3475 28.7078 28.4513 28.1699 28.5849 27.6728C28.7259 27.1756 28.9781 26.7156 29.3417 26.2927C29.7053 25.8697 30.2098 25.6583 30.8554 25.6583ZM29.6867 29.921C29.939 30.0397 30.1802 30.1287 30.4102 30.1881C30.6402 30.24 30.885 30.266 31.1447 30.266C31.6938 30.266 32.2874 30.1732 32.9255 29.9877C32.8661 29.4609 32.7326 28.9712 32.5248 28.5186C32.3171 28.0586 32.0685 27.695 31.7791 27.4279C31.4972 27.1534 31.2115 27.0161 30.9221 27.0161C30.6328 27.0161 30.4065 27.1497 30.2432 27.4168C30.08 27.6765 29.965 27.9733 29.8982 28.3072C29.8388 28.6411 29.7832 29.0417 29.7313 29.5092C29.7238 29.6056 29.7164 29.6872 29.709 29.754C29.7016 29.8208 29.6942 29.8765 29.6867 29.921Z" fill="black"/>
<path d="M42.2281 30.266C42.3764 30.266 57.9506 30.4886 57.9506 30.9338C57.9506 31.3864 42.3764 31.6127 42.2281 31.6127H41.0038C40.9889 32.4066 40.7478 33.0262 40.2803 33.4714C39.8203 33.924 39.1933 34.154 38.3994 34.1614L38.188 32.7924C38.2473 32.7999 38.3289 32.8036 38.4328 32.8036C38.8112 32.8036 39.0895 32.7108 39.2675 32.5253C39.4456 32.3398 39.5384 32.0356 39.5458 31.6127H38.366C37.8021 31.6127 37.279 31.4866 36.7967 31.2343C36.3219 30.982 35.9435 30.637 35.6615 30.1992C35.3795 29.754 35.2386 29.2643 35.2386 28.7301C35.2386 28.1959 35.3795 27.7062 35.6615 27.261C35.9435 26.8158 36.3219 26.4633 36.7967 26.2036C37.279 25.9439 37.8021 25.8141 38.366 25.8141C38.7815 25.8141 39.2156 25.892 39.6682 26.0478C40.1208 26.1962 40.5289 26.3966 40.8925 26.6488L41.0038 26.6933V30.266H42.2281ZM36.6966 28.7301C36.6966 29.0195 36.7671 29.2829 36.908 29.5203C37.0564 29.7503 37.2568 29.9321 37.509 30.0657C37.7687 30.1992 38.0618 30.266 38.3883 30.266H39.5458V27.4502C39.1451 27.2573 38.7593 27.1608 38.3883 27.1608C38.0618 27.1608 37.7687 27.2313 37.509 27.3723C37.2568 27.5132 37.0564 27.7024 36.908 27.9399C36.7671 28.1773 36.6966 28.4407 36.6966 28.7301Z" fill="black"/>
<path d="M68.3465 30.266C68.4949 30.266 68.5691 30.4886 68.5691 30.9338C68.5691 31.3864 68.4949 31.6127 68.3465 31.6127H42.2277C42.0793 31.6127 42.0051 31.3864 42.0051 30.9338C42.0051 30.4886 42.0793 30.266 42.2277 30.266H61.1V30.177C61.1 29.3905 60.9257 28.782 60.5769 28.3517C60.2282 27.9213 59.7311 27.7062 59.0855 27.7062L58.184 26.7601L61.1111 23.7885L62.0238 24.7345L60.2653 26.5041C60.9776 26.7267 61.5378 27.1682 61.9459 27.8286C62.354 28.4815 62.558 29.294 62.558 30.266H68.3465Z" fill="black"/>
<path d="M75.8318 30.266C75.9802 30.266 76.0544 30.4886 76.0544 30.9338C76.0544 31.3864 75.9802 31.6127 75.8318 31.6127H68.3414C68.193 31.6127 63.7439 31.3864 63.7439 30.9338C63.7439 30.4886 68.193 30.266 68.3414 30.266H72.7822V28.7969C72.7822 28.2552 72.6078 27.8249 72.2591 27.5058C71.9104 27.1793 71.4466 27.0161 70.8679 27.0161C70.2224 27.0161 69.6251 27.2164 69.076 27.6171L68.4416 26.3706C69.1762 25.8957 69.9849 25.6583 70.8679 25.6583C71.5134 25.6583 72.0922 25.7918 72.6041 26.0589C73.1161 26.3261 73.5168 26.7008 73.8062 27.1831C74.0955 27.6579 74.2402 28.1959 74.2402 28.7969V30.266H75.8318Z" fill="black"/>
<path d="M78.1562 23.321V31.6127H75.8301C75.6817 31.6127 75.6075 31.3864 75.6075 30.9338C75.6075 30.4886 75.6817 30.266 75.8301 30.266H76.6982V23.321H78.1562Z" fill="black"/>
<path d="M79.9827 23.321H81.4296V31.6127H79.9827V23.321Z" fill="black"/>
<defs>
<clipPath id="clip0_248_340">
<rect width="44" height="42.8973" fill="white" transform="translate(88.2285)"/>
</clipPath>
</defs>
</svg>
