<svg width="165" height="54" viewBox="0 0 165 54" fill="none" xmlns="http://www.w3.org/2000/svg">
<g clip-path="url(#clip0_213_547)">
<path fill-rule="evenodd" clip-rule="evenodd" d="M160.241 18.8003C161.09 17.7616 161.939 16.7215 162.778 15.6688L162.777 15.6695C162.72 15.6392 162.668 15.6114 162.62 15.5855C162.508 15.5258 162.416 15.4765 162.321 15.4309C162.002 15.2767 161.682 15.1224 161.362 14.968C159.539 14.0886 157.351 13.1422 155.524 12.2715C154.967 9.77076 153.725 4.33657 153.725 4.33657C153.725 4.33657 148.937 6.76378 146.519 7.92678L144.75 0.00778147L137.477 3.57216L130.269 0.000183105C130.269 0.000183105 129.062 5.28552 128.474 7.88804L137.477 3.57216L146.519 7.92678C149.366 9.28145 152.657 10.9585 155.524 12.2715C155.727 13.1819 155.98 14.497 156.171 15.4183C156.624 17.6036 157.079 19.8624 157.713 21.9823C158.546 20.9363 159.393 19.8383 160.241 18.8003Z" fill="white"/>
<path d="M153.7 39.5497L153.706 39.5497C153.292 37.496 152.815 35.461 152.323 33.4244C152.019 32.1652 151.716 30.9115 151.447 29.7478C150.12 31.418 148.764 33.1215 147.4 34.8348C146.186 36.36 144.966 37.893 143.754 39.4175C146.936 39.4261 150.517 39.5489 153.7 39.5497Z" fill="white"/>
<path d="M155.058 47.3919H155.545C155.278 46.1493 154.995 44.9249 154.712 43.7018L154.712 43.7008C154.397 42.338 153.993 40.9327 153.7 39.5497C151.849 42.1564 149.669 44.5823 147.682 47.085C147.545 47.2574 147.404 47.3456 147.175 47.3456C143.951 47.3394 137.504 47.3623 137.504 47.3623L142.485 53.6826L147.251 47.7232C147.441 47.4824 147.644 47.3843 147.954 47.3859C149.729 47.395 151.504 47.3938 153.28 47.3927H153.282C153.874 47.3923 154.466 47.3919 155.058 47.3919Z" fill="white"/>
<path d="M141.212 42.7766L141.214 42.7744C141.987 41.8049 142.989 40.3931 143.754 39.4175L131.247 39.4972C131.833 40.2384 132.471 41.0576 133.115 41.8845L133.115 41.8847C133.999 43.0203 137.504 47.3623 137.504 47.3623C137.504 47.3623 140.067 44.2127 141.212 42.7766Z" fill="white"/>
<path d="M117.294 21.9737L123.535 29.7858C124.45 25.7716 125.334 21.5978 126.232 17.6611C123.248 19.0881 120.24 20.4697 117.294 21.9737Z" fill="white"/>
<path d="M128.474 7.88804L121.252 4.40723C120.647 7.02336 120.152 9.68538 119.432 12.2715C119.432 12.2715 125.49 9.37126 128.474 7.88804Z" fill="white"/>
<path d="M119.432 12.2715L112.215 15.7227L117.294 21.9737C117.294 21.9737 118.715 15.478 119.432 12.2715Z" fill="white"/>
<path d="M153.706 39.5497L161.752 39.5937C161.255 37.4425 160.457 33.8966 159.893 31.7613C159.592 32.1384 154.03 39.144 153.706 39.5497Z" fill="white"/>
<path d="M159.893 31.7613L165.008 25.46C162.592 24.2944 160.133 23.1494 157.713 21.9823C157.902 22.8141 159.893 31.7613 159.893 31.7613Z" fill="white"/>
<path d="M117.294 21.9737L110.01 25.4783C111.657 27.6068 113.382 29.6702 115.067 31.7677C115.777 28.7727 117.294 21.9737 117.294 21.9737Z" fill="white"/>
<path d="M113.225 39.6044L121.29 39.5475C119.232 36.9408 117.158 34.3478 115.067 31.7677L113.225 39.6044Z" fill="white"/>
<path d="M126.648 39.5489C128.211 39.5249 129.771 39.5009 131.247 39.4972C128.672 36.2695 126.102 33.0037 123.535 29.7858C122.853 32.7165 121.958 36.613 121.29 39.5475C122.877 39.5467 124.97 39.5747 126.648 39.5489Z" fill="white"/>
<path d="M119.448 47.3927L127.514 47.3912L121.29 39.5475L119.448 47.3927Z" fill="white"/>
<path d="M132.41 53.5643C132.443 53.6008 132.477 53.6392 132.513 53.6811L137.504 47.3623L127.514 47.3912C127.514 47.3912 130.099 50.6837 131.32 52.2138L131.322 52.2156L131.34 52.2382C131.636 52.6097 131.933 52.9812 132.229 53.3529C132.284 53.4222 132.343 53.4884 132.409 53.5633L132.409 53.5635L132.41 53.5643Z" fill="white"/>
<path d="M148.685 17.6284C149.123 19.5454 151.447 29.7478 151.447 29.7478C153.533 27.1524 155.72 24.6517 157.713 21.9823C154.747 20.4524 151.728 19.0003 148.685 17.6284Z" fill="white"/>
<path d="M146.519 7.92678L137.478 12.1956L148.685 17.6284L146.519 7.92678Z" fill="white"/>
<path d="M128.474 7.88804L126.232 17.6611L137.478 12.1956L128.474 7.88804Z" fill="white"/>
<path d="M147.103 25.6756C144.609 24.6299 141.781 24.6525 139.314 25.7036C140.428 23.9511 142.157 22.6777 144.205 22.1381L144.933 21.9461C144.966 21.9374 144.978 21.8975 144.956 21.8727L144.48 21.331C144.037 20.827 143.324 20.65 142.699 20.8928C140.941 21.5759 139.43 22.7328 138.321 24.2328V20.2162C138.321 19.9928 138.234 19.777 138.08 19.6151L137.854 19.3777C137.659 19.1727 137.331 19.1727 137.135 19.3777L136.908 19.6151C136.754 19.777 136.667 19.9928 136.667 20.2162V24.1723C135.565 22.7069 134.078 21.5748 132.352 20.9004C131.719 20.6533 131.002 20.8227 130.554 21.332L130.077 21.8738C130.054 21.8997 130.067 21.9385 130.1 21.9471L130.828 22.1392C132.876 22.6788 134.605 23.9522 135.719 25.7047C133.251 24.6536 130.424 24.631 127.931 25.6766C127.31 25.9356 126.923 26.5605 126.956 27.2317L126.992 27.9504C126.993 27.9838 127.029 28.0043 127.06 27.9871L127.716 27.618C130.106 26.2723 133.011 26.2141 135.436 27.3914C133.938 27.74 132.542 28.4317 131.355 29.4148C130.833 29.8464 130.637 30.5565 130.865 31.1932L131.108 31.872C131.118 31.9033 131.159 31.9119 131.183 31.8882L131.704 31.3443C133.028 29.9608 134.778 29.0856 136.668 28.8482L136.667 39.5112H138.321L138.322 28.8428C140.231 29.0705 141.997 29.9489 143.333 31.3443L143.853 31.8882C143.877 31.913 143.917 31.9043 143.929 31.872L144.172 31.1932C144.399 30.5565 144.203 29.8454 143.682 29.4148C142.494 28.4306 141.098 27.74 139.599 27.3914C142.024 26.2141 144.929 26.2723 147.319 27.618L147.976 27.9871C148.005 28.0033 148.041 27.9838 148.044 27.9504L148.079 27.2317C148.113 26.5605 147.725 25.9356 147.106 25.6766" fill="white"/>
<circle cx="160.906" cy="5.53954" r="2.20959" stroke="white" stroke-width="0.270122"/>
<mask id="path-4-outside-1_213_547" maskUnits="userSpaceOnUse" x="159.936" y="3.84174" width="2" height="4" fill="black">
<rect fill="white" x="159.936" y="3.84174" width="2" height="4"/>
<path d="M160.28 6.84174V4.78374H160.976C161.137 4.78374 161.268 4.8112 161.372 4.86614C161.475 4.9204 161.551 4.9951 161.601 5.09023C161.65 5.18535 161.675 5.29355 161.675 5.4148C161.675 5.53606 161.65 5.64358 161.601 5.73737C161.551 5.83116 161.475 5.90485 161.373 5.95844C161.27 6.01137 161.139 6.03783 160.98 6.03783H160.417V5.81274H160.972C161.082 5.81274 161.17 5.79666 161.237 5.7645C161.305 5.73235 161.354 5.68679 161.384 5.62784C161.415 5.56821 161.43 5.4972 161.43 5.4148C161.43 5.3324 161.415 5.26039 161.384 5.19875C161.353 5.13712 161.304 5.08956 161.236 5.05606C161.168 5.02189 161.079 5.00481 160.968 5.00481H160.53V6.84174H160.28ZM161.249 5.91724L161.756 6.84174H161.466L160.968 5.91724H161.249Z"/>
</mask>
<path d="M160.28 6.84174V4.78374H160.976C161.137 4.78374 161.268 4.8112 161.372 4.86614C161.475 4.9204 161.551 4.9951 161.601 5.09023C161.65 5.18535 161.675 5.29355 161.675 5.4148C161.675 5.53606 161.65 5.64358 161.601 5.73737C161.551 5.83116 161.475 5.90485 161.373 5.95844C161.27 6.01137 161.139 6.03783 160.98 6.03783H160.417V5.81274H160.972C161.082 5.81274 161.17 5.79666 161.237 5.7645C161.305 5.73235 161.354 5.68679 161.384 5.62784C161.415 5.56821 161.43 5.4972 161.43 5.4148C161.43 5.3324 161.415 5.26039 161.384 5.19875C161.353 5.13712 161.304 5.08956 161.236 5.05606C161.168 5.02189 161.079 5.00481 160.968 5.00481H160.53V6.84174H160.28ZM161.249 5.91724L161.756 6.84174H161.466L160.968 5.91724H161.249Z" fill="white"/>
<path d="M160.28 6.84174H160.222V6.90035H160.28V6.84174ZM160.28 4.78374V4.72512H160.222V4.78374H160.28ZM161.372 4.86614L161.344 4.91788L161.344 4.91801L161.372 4.86614ZM161.601 5.09023L161.549 5.11731L161.549 5.11731L161.601 5.09023ZM161.601 5.73737L161.549 5.70998L161.601 5.73737ZM161.373 5.95844L161.4 6.01053L161.4 6.01039L161.373 5.95844ZM160.417 6.03783H160.358V6.09645H160.417V6.03783ZM160.417 5.81274V5.75412H160.358V5.81274H160.417ZM161.237 5.7645L161.212 5.71156L161.212 5.71166L161.237 5.7645ZM161.384 5.62784L161.332 5.60092L161.332 5.60115L161.384 5.62784ZM161.236 5.05606L161.21 5.10839L161.21 5.10859L161.236 5.05606ZM160.53 5.00481V4.94619H160.471V5.00481H160.53ZM160.53 6.84174V6.90035H160.588V6.84174H160.53ZM161.249 5.91724L161.3 5.88908L161.284 5.85863H161.249V5.91724ZM161.756 6.84174V6.90035H161.854L161.807 6.81357L161.756 6.84174ZM161.466 6.84174L161.415 6.86955L161.431 6.90035H161.466V6.84174ZM160.968 5.91724V5.85863H160.869L160.916 5.94506L160.968 5.91724ZM160.28 6.84174H160.339V4.78374H160.28H160.222V6.84174H160.28ZM160.28 4.78374V4.84235H160.976V4.78374V4.72512H160.28V4.78374ZM160.976 4.78374V4.84235C161.13 4.84235 161.252 4.86883 161.344 4.91788L161.372 4.86614L161.399 4.8144C161.285 4.75357 161.143 4.72512 160.976 4.72512V4.78374ZM161.372 4.86614L161.344 4.91801C161.438 4.96723 161.505 5.03369 161.549 5.11731L161.601 5.09023L161.653 5.06314C161.597 4.9565 161.512 4.87357 161.399 4.81426L161.372 4.86614ZM161.601 5.09023L161.549 5.11731C161.593 5.20304 161.617 5.30174 161.617 5.4148H161.675H161.734C161.734 5.28536 161.707 5.16767 161.653 5.06314L161.601 5.09023ZM161.675 5.4148H161.617C161.617 5.52789 161.593 5.62577 161.549 5.70998L161.601 5.73737L161.653 5.76476C161.707 5.66139 161.734 5.54423 161.734 5.4148H161.675ZM161.601 5.73737L161.549 5.70998C161.505 5.79232 161.438 5.85788 161.345 5.9065L161.373 5.95844L161.4 6.01039C161.512 5.95182 161.597 5.86999 161.653 5.76476L161.601 5.73737ZM161.373 5.95844L161.346 5.90636C161.254 5.95367 161.133 5.97921 160.98 5.97921V6.03783V6.09645C161.145 6.09645 161.286 6.06907 161.4 6.01053L161.373 5.95844ZM160.98 6.03783V5.97921H160.417V6.03783V6.09645H160.98V6.03783ZM160.417 6.03783H160.476V5.81274H160.417H160.358V6.03783H160.417ZM160.417 5.81274V5.87135H160.972V5.81274V5.75412H160.417V5.81274ZM160.972 5.81274V5.87135C161.086 5.87135 161.185 5.85468 161.262 5.81735L161.237 5.7645L161.212 5.71166C161.155 5.73864 161.077 5.75412 160.972 5.75412V5.81274ZM161.237 5.7645L161.262 5.81744C161.34 5.78051 161.399 5.72646 161.436 5.65453L161.384 5.62784L161.332 5.60115C161.308 5.64713 161.269 5.68418 161.212 5.71156L161.237 5.7645ZM161.384 5.62784L161.436 5.65475C161.472 5.58512 161.489 5.50447 161.489 5.4148H161.43H161.371C161.371 5.48994 161.357 5.55131 161.332 5.60092L161.384 5.62784ZM161.43 5.4148H161.489C161.489 5.32507 161.472 5.24376 161.436 5.17254L161.384 5.19875L161.331 5.22497C161.357 5.27702 161.371 5.33974 161.371 5.4148H161.43ZM161.384 5.19875L161.436 5.17254C161.399 5.09839 161.34 5.04211 161.262 5.00353L161.236 5.05606L161.21 5.10859C161.267 5.137 161.307 5.17585 161.331 5.22497L161.384 5.19875ZM161.236 5.05606L161.262 5.00374C161.184 4.96396 161.084 4.94619 160.968 4.94619V5.00481V5.06343C161.074 5.06343 161.153 5.07983 161.21 5.10838L161.236 5.05606ZM160.968 5.00481V4.94619H160.53V5.00481V5.06343H160.968V5.00481ZM160.53 5.00481H160.471V6.84174H160.53H160.588V5.00481H160.53ZM160.53 6.84174V6.78312H160.28V6.84174V6.90035H160.53V6.84174ZM161.249 5.91724L161.198 5.94541L161.704 6.8699L161.756 6.84174L161.807 6.81357L161.3 5.88908L161.249 5.91724ZM161.756 6.84174V6.78312H161.466V6.84174V6.90035H161.756V6.84174ZM161.466 6.84174L161.518 6.81392L161.019 5.88943L160.968 5.91724L160.916 5.94506L161.415 6.86955L161.466 6.84174ZM160.968 5.91724V5.97586H161.249V5.91724V5.85863H160.968V5.91724Z" fill="white" mask="url(#path-4-outside-1_213_547)"/>
</g>
<path d="M11.1018 15.6118V22.4843L3.11629 22.4982C2.13317 22.4982 1.36801 22.2154 0.820808 21.6496C0.273603 21.0839 0 20.3094 0 19.3263C0 18.6864 0.115933 18.1206 0.3478 17.629C0.588941 17.1375 0.936741 16.6877 1.3912 16.2796L2.81022 17.2812C2.46706 17.6059 2.21665 17.9351 2.05898 18.269C1.90131 18.5936 1.82247 18.9414 1.82247 19.3124C1.82247 19.7761 1.94768 20.1425 2.1981 20.4114C2.45779 20.6711 2.82414 20.801 3.29714 20.801H9.2793V15.6118H11.1018ZM6.87253 14.6241C6.62211 14.6241 6.41343 14.5359 6.24649 14.3597C6.07954 14.1835 5.99607 13.9656 5.99607 13.7059C5.99607 13.4276 6.07954 13.205 6.24649 13.0381C6.41343 12.8619 6.62211 12.7738 6.87253 12.7738C7.14149 12.7738 7.35945 12.8619 7.52639 13.0381C7.69333 13.205 7.77681 13.4276 7.77681 13.7059C7.77681 13.9656 7.6887 14.1835 7.51248 14.3597C7.34553 14.5359 7.13222 14.6241 6.87253 14.6241ZM4.6327 14.6241C4.38228 14.6241 4.1736 14.5359 4.00666 14.3597C3.83971 14.1835 3.75624 13.9656 3.75624 13.7059C3.75624 13.4276 3.83971 13.205 4.00666 13.0381C4.1736 12.8619 4.38228 12.7738 4.6327 12.7738C4.90166 12.7738 5.11962 12.8619 5.28656 13.0381C5.4535 13.205 5.53697 13.4276 5.53697 13.7059C5.53697 13.9656 5.44887 14.1835 5.27265 14.3597C5.1057 14.5359 4.89239 14.6241 4.6327 14.6241Z" fill="white"/>
<path d="M16.6807 20.801C16.8662 20.801 16.9589 21.0792 16.9589 21.6357C16.9589 22.2015 16.8662 22.4843 16.6807 22.4843H13.2444V12.1199H15.053V20.801H16.6807Z" fill="white"/>
<path d="M19.978 15.6118V22.4843H16.6807C16.4952 22.4843 16.4026 22.2015 16.4026 21.6357C16.4026 21.0792 16.4952 20.801 16.6807 20.801H18.1555V15.6118H19.978ZM20.2005 25.4059C19.9501 25.4059 19.7415 25.3177 19.5745 25.1415C19.4076 24.9653 19.3241 24.7474 19.3241 24.4877C19.3241 24.2094 19.4076 23.9822 19.5745 23.806C19.7415 23.639 19.9501 23.5556 20.2005 23.5556C20.4695 23.5556 20.6875 23.639 20.8544 23.806C21.0214 23.9822 21.1048 24.2094 21.1048 24.4877C21.1048 24.7474 21.0167 24.9653 20.8405 25.1415C20.6736 25.3177 20.4602 25.4059 20.2005 25.4059ZM17.9607 25.4059C17.7103 25.4059 17.5016 25.3177 17.3347 25.1415C17.1677 24.9653 17.0843 24.7474 17.0843 24.4877C17.0843 24.2094 17.1677 23.9822 17.3347 23.806C17.5016 23.639 17.7103 23.5556 17.9607 23.5556C18.2297 23.5556 18.4476 23.639 18.6146 23.806C18.7815 23.9822 18.865 24.2094 18.865 24.4877C18.865 24.7474 18.7769 24.9653 18.6007 25.1415C18.4337 25.3177 18.2204 25.4059 17.9607 25.4059Z" fill="white"/>
<path d="M30.8782 20.801C31.0637 20.801 31.1565 21.0792 31.1565 21.6357C31.1565 22.2015 31.0637 22.4843 30.8782 22.4843H30.0713C29.0975 22.4843 28.3787 22.2432 27.915 21.7609C27.4512 21.2786 27.2147 20.5552 27.2055 19.5906C26.8159 19.6927 26.4078 19.7437 25.9812 19.7437C25.5267 19.7437 25.1047 19.688 24.7152 19.5767V22.373C24.7152 23.384 24.437 24.177 23.8805 24.752C23.324 25.3363 22.5588 25.6377 21.585 25.6563L21.3207 23.9729C21.8772 24.0007 22.276 23.8894 22.5171 23.639C22.7675 23.3979 22.8927 22.9759 22.8927 22.373V15.6118H24.7152V17.8934C25.1047 18.0047 25.5267 18.0603 25.9812 18.0603C26.4078 18.0603 26.8159 18.0093 27.2055 17.9073V15.6118H29.014V19.5211C29.014 19.9848 29.1021 20.3141 29.2783 20.5088C29.4546 20.7036 29.7792 20.801 30.2522 20.801H30.8782ZM29.2366 14.6241C28.9862 14.6241 28.7775 14.5359 28.6106 14.3597C28.4436 14.1835 28.3601 13.9656 28.3601 13.7059C28.3601 13.4276 28.4436 13.205 28.6106 13.0381C28.7775 12.8619 28.9862 12.7738 29.2366 12.7738C29.5056 12.7738 29.7235 12.8619 29.8905 13.0381C30.0574 13.205 30.1409 13.4276 30.1409 13.7059C30.1409 13.9656 30.0528 14.1835 29.8766 14.3597C29.7096 14.5359 29.4963 14.6241 29.2366 14.6241ZM26.9968 14.6241C26.7464 14.6241 26.5377 14.5359 26.3707 14.3597C26.2038 14.1835 26.1203 13.9656 26.1203 13.7059C26.1203 13.4276 26.2038 13.205 26.3707 13.0381C26.5377 12.8619 26.7464 12.7738 26.9968 12.7738C27.2657 12.7738 27.4837 12.8619 27.6506 13.0381C27.8176 13.205 27.9011 13.4276 27.9011 13.7059C27.9011 13.9656 27.8129 14.1835 27.6367 14.3597C27.4698 14.5359 27.2565 14.6241 26.9968 14.6241Z" fill="white"/>
<path d="M44.8736 20.801C45.0591 20.801 45.1518 21.0792 45.1518 21.6357C45.1518 22.2015 45.0591 22.4843 44.8736 22.4843H44.0389C43.232 22.4843 42.5781 22.271 42.0773 21.8444C41.6135 22.271 40.9179 22.4843 39.9905 22.4843C39.1094 22.4843 38.4091 22.2757 37.8898 21.8583C37.4167 22.2757 36.7258 22.4843 35.8169 22.4843C34.9358 22.4843 34.2355 22.2757 33.7162 21.8583C33.2431 22.2757 32.5336 22.4843 31.5876 22.4843H30.8782C30.6927 22.4843 30.5999 22.2015 30.5999 21.6357C30.5999 21.0792 30.6927 20.801 30.8782 20.801H31.4207C31.9122 20.801 32.2461 20.7082 32.4223 20.5227C32.6078 20.328 32.7006 19.9941 32.7006 19.5211V16.9891H34.5231V19.535C34.5231 19.9431 34.4906 20.2909 34.4257 20.5784C34.6854 20.7268 35.0517 20.801 35.5247 20.801C35.8864 20.801 36.1647 20.7639 36.3594 20.6897C36.5542 20.6062 36.6887 20.4764 36.7629 20.3002C36.8464 20.1147 36.8881 19.855 36.8881 19.5211V16.2935H38.6967V19.535C38.6967 19.9616 38.6596 20.3094 38.5854 20.5784C38.8543 20.7268 39.2253 20.801 39.6983 20.801C40.06 20.801 40.3383 20.7639 40.533 20.6897C40.7278 20.6062 40.8623 20.4764 40.9365 20.3002C41.02 20.1147 41.0617 19.855 41.0617 19.5211V15.5979H42.8703V19.535C42.8703 19.9616 42.8332 20.3094 42.759 20.5784C42.9908 20.7268 43.2737 20.801 43.6076 20.801H44.8736ZM37.7645 10.9374C38.0057 10.9374 38.2005 11.0208 38.3489 11.1878C38.5065 11.3455 38.5854 11.5495 38.5854 11.7999C38.5854 12.0503 38.5065 12.2544 38.3489 12.412C38.2005 12.5697 38.0057 12.6486 37.7645 12.6486C37.5234 12.6486 37.324 12.5697 37.1663 12.412C37.0179 12.2544 36.9437 12.0503 36.9437 11.7999C36.9437 11.5495 37.0179 11.3455 37.1663 11.1878C37.324 11.0208 37.5234 10.9374 37.7645 10.9374ZM36.6516 12.8433C36.9113 12.8433 37.1246 12.9314 37.2915 13.1076C37.4678 13.2746 37.5559 13.4925 37.5559 13.7615C37.5559 14.0305 37.4678 14.2531 37.2915 14.4293C37.1246 14.6055 36.9113 14.6936 36.6516 14.6936C36.4012 14.6936 36.1925 14.6055 36.0256 14.4293C35.8586 14.2531 35.7751 14.0305 35.7751 13.7615C35.7751 13.5018 35.8586 13.2839 36.0256 13.1076C36.1925 12.9314 36.4012 12.8433 36.6516 12.8433ZM38.8914 12.8433C39.1511 12.8433 39.3644 12.9314 39.5314 13.1076C39.7076 13.2746 39.7957 13.4925 39.7957 13.7615C39.7957 14.0305 39.7076 14.2531 39.5314 14.4293C39.3644 14.6055 39.1511 14.6936 38.8914 14.6936C38.641 14.6936 38.4323 14.6055 38.2654 14.4293C38.0984 14.2531 38.015 14.0305 38.015 13.7615C38.015 13.5018 38.0984 13.2839 38.2654 13.1076C38.4323 12.9314 38.641 12.8433 38.8914 12.8433Z" fill="white"/>
<path d="M55.5421 20.801C55.7276 20.801 55.8204 21.0792 55.8204 21.6357C55.8204 22.2015 55.7276 22.4843 55.5421 22.4843H55.4308C54.5405 22.4843 53.817 22.2571 53.2606 21.8026C52.667 22.0252 52.0502 22.1968 51.4103 22.3174C50.7703 22.4287 50.1906 22.4843 49.6713 22.4843C48.7716 22.4843 47.8952 22.2896 47.0419 21.9C46.5782 22.2896 45.9939 22.4843 45.289 22.4843H44.8716C44.6861 22.4843 44.5934 22.2015 44.5934 21.6357C44.5934 21.0792 44.6861 20.801 44.8716 20.801H45.0664C45.3539 20.801 45.5765 20.7314 45.7342 20.5923C45.9011 20.4532 46.0078 20.2352 46.0541 19.9384L46.0959 19.5767C46.1886 18.8533 46.3185 18.1809 46.4854 17.5595C46.6616 16.9381 46.977 16.3631 47.4314 15.8344C47.8859 15.3057 48.5166 15.0414 49.3235 15.0414C50.0283 15.0414 50.6915 15.264 51.3129 15.7092C51.9436 16.1451 52.4722 16.7526 52.8988 17.5317C53.3255 18.3107 53.5991 19.1872 53.7197 20.161C53.9515 20.5877 54.3874 20.801 55.0274 20.801H55.5421ZM47.8627 20.3697C48.178 20.5181 48.4795 20.6294 48.767 20.7036C49.0545 20.7685 49.3606 20.801 49.6852 20.801C50.3715 20.801 51.1135 20.6851 51.9111 20.4532C51.8369 19.7947 51.67 19.1826 51.4103 18.6168C51.1506 18.0418 50.8399 17.5873 50.4782 17.2534C50.1257 16.9103 49.7687 16.7387 49.4069 16.7387C49.0452 16.7387 48.7623 16.9056 48.5583 17.2395C48.3543 17.5641 48.2105 17.9351 48.127 18.3525C48.0528 18.7698 47.9833 19.2707 47.9184 19.855C47.9091 19.9755 47.8998 20.0776 47.8905 20.161C47.8813 20.2445 47.872 20.3141 47.8627 20.3697Z" fill="white"/>
<path d="M58.4442 12.1199V22.4843H55.5366C55.3511 22.4843 55.2583 22.2015 55.2583 21.6357C55.2583 21.0792 55.3511 20.801 55.5366 20.801H56.6217V12.1199H58.4442Z" fill="white"/>
<path d="M60.7273 12.1199H62.5358V22.4843H60.7273V12.1199Z" fill="white"/>
<path d="M76.7718 20.801C76.9573 20.801 77.0501 21.0792 77.0501 21.6357C77.0501 22.2015 76.9573 22.4843 76.7718 22.4843H76.3684C75.2461 22.4843 74.4532 22.1551 73.9894 21.4966C73.2104 21.8583 72.4498 22.0392 71.7079 22.0392C71.0308 22.0392 70.4094 21.8861 69.8437 21.5801C69.2779 21.2647 68.8281 20.8427 68.4942 20.3141C68.1603 19.7761 67.9934 19.1826 67.9934 18.5333C67.9934 17.8934 68.1603 17.3044 68.4942 16.7665C68.8281 16.2286 69.2779 15.8066 69.8437 15.5005C70.4187 15.1852 71.0401 15.0275 71.7079 15.0275H73.4886V14.6658H75.3111V19.5211C75.3111 19.9848 75.3992 20.3141 75.5754 20.5088C75.7516 20.7036 76.0762 20.801 76.5492 20.801H76.7718ZM71.7913 20.3558C72.3385 20.3558 72.9089 20.1842 73.5025 19.8411C73.4932 19.7761 73.4886 19.6741 73.4886 19.535V16.7109H71.7496C71.3972 16.7109 71.0725 16.7943 70.7758 16.9613C70.479 17.1189 70.2425 17.3369 70.0662 17.6151C69.8993 17.8934 69.8158 18.1994 69.8158 18.5333C69.8158 19.0434 70.0013 19.4747 70.3723 19.8271C70.7433 20.1796 71.2163 20.3558 71.7913 20.3558ZM72.8347 13.998C72.5843 13.998 72.3756 13.9099 72.2087 13.7337C72.0417 13.5575 71.9583 13.3395 71.9583 13.0798C71.9583 12.8016 72.0417 12.579 72.2087 12.412C72.3756 12.2358 72.5843 12.1477 72.8347 12.1477C73.1037 12.1477 73.3217 12.2358 73.4886 12.412C73.6555 12.579 73.739 12.8016 73.739 13.0798C73.739 13.3395 73.6509 13.5575 73.4747 13.7337C73.3077 13.9099 73.0944 13.998 72.8347 13.998ZM70.5949 13.998C70.3445 13.998 70.1358 13.9099 69.9689 13.7337C69.8019 13.5575 69.7184 13.3395 69.7184 13.0798C69.7184 12.8016 69.8019 12.579 69.9689 12.412C70.1358 12.2358 70.3445 12.1477 70.5949 12.1477C70.8639 12.1477 71.0818 12.2358 71.2488 12.412C71.4157 12.579 71.4992 12.8016 71.4992 13.0798C71.4992 13.3395 71.4111 13.5575 71.2349 13.7337C71.0679 13.9099 70.8546 13.998 70.5949 13.998Z" fill="white"/>
<path d="M84.576 20.801C84.7615 20.801 84.8543 21.0792 84.8543 21.6357C84.8543 22.2015 84.7615 22.4843 84.576 22.4843H76.7714C76.5859 22.4843 76.4932 22.2015 76.4932 21.6357C76.4932 21.0792 76.5859 20.801 76.7714 20.801H80.9867V20.6897C80.9867 19.7066 80.7688 18.9461 80.3329 18.4081C79.897 17.8702 79.2756 17.6012 78.4687 17.6012L77.3418 16.4187L81.0006 12.7042L82.1414 13.8867L79.9433 16.0987C80.8337 16.377 81.5339 16.9288 82.044 17.7543C82.5542 18.5704 82.8092 19.586 82.8092 20.801H84.576Z" fill="white"/>
<path d="M90.1623 20.801C90.3478 20.801 90.4406 21.0792 90.4406 21.6357C90.4406 22.2015 90.3478 22.4843 90.1623 22.4843H89.4111C88.6042 22.4843 87.9457 22.271 87.4356 21.8444C86.9811 22.271 86.2948 22.4843 85.3766 22.4843H84.5697C84.3842 22.4843 84.2915 22.2015 84.2915 21.6357C84.2915 21.0792 84.3842 20.801 84.5697 20.801H85.1958C85.6688 20.801 85.9934 20.7036 86.1696 20.5088C86.3458 20.3141 86.4339 19.9848 86.4339 19.5211V15.6118H88.2425V19.535C88.2425 19.906 88.2054 20.2538 88.1312 20.5784C88.3631 20.7268 88.6506 20.801 88.9937 20.801H90.1623ZM87.2269 25.6841C86.9394 25.6841 86.6983 25.5821 86.5035 25.378C86.318 25.1833 86.2253 24.9375 86.2253 24.6407C86.2253 24.3346 86.318 24.0842 86.5035 23.8894C86.6983 23.6947 86.9394 23.5973 87.2269 23.5973C87.5237 23.5973 87.7648 23.6947 87.9503 23.8894C88.1451 24.0842 88.2425 24.3346 88.2425 24.6407C88.2425 24.9375 88.1451 25.1833 87.9503 25.378C87.7556 25.5821 87.5144 25.6841 87.2269 25.6841Z" fill="white"/>
<path d="M102.159 15.5979V19.535C102.159 20.5274 101.923 21.2694 101.45 21.7609C100.986 22.2432 100.263 22.4843 99.2795 22.4843C98.3984 22.4843 97.6982 22.2757 97.1788 21.8583C96.7058 22.2757 96.0148 22.4843 95.1059 22.4843C94.2248 22.4843 93.5246 22.2757 93.0052 21.8583C92.5322 22.2757 91.8227 22.4843 90.8766 22.4843H90.1671C89.9816 22.4843 89.8889 22.2015 89.8889 21.6357C89.8889 21.0792 89.9816 20.801 90.1671 20.801H90.7097C91.2012 20.801 91.5351 20.7082 91.7114 20.5227C91.8969 20.328 91.9896 19.9941 91.9896 19.5211V16.9891H93.8121V19.535C93.8121 19.9431 93.7796 20.2909 93.7147 20.5784C93.9744 20.7268 94.3407 20.801 94.8137 20.801C95.1754 20.801 95.4537 20.7639 95.6485 20.6897C95.8432 20.6062 95.9777 20.4764 96.0519 20.3002C96.1354 20.1147 96.1771 19.855 96.1771 19.5211V16.2935H97.9857V19.535C97.9857 19.9616 97.9486 20.3094 97.8744 20.5784C98.1433 20.7268 98.5143 20.801 98.9873 20.801C99.349 20.801 99.6273 20.7639 99.822 20.6897C100.017 20.6062 100.151 20.4764 100.226 20.3002C100.309 20.1147 100.351 19.855 100.351 19.5211V15.5979H102.159ZM97.0536 10.9374C97.2947 10.9374 97.4895 11.0208 97.6379 11.1878C97.7955 11.3455 97.8744 11.5495 97.8744 11.7999C97.8744 12.0503 97.7955 12.2544 97.6379 12.412C97.4895 12.5697 97.2947 12.6486 97.0536 12.6486C96.8124 12.6486 96.613 12.5697 96.4553 12.412C96.307 12.2544 96.2327 12.0503 96.2327 11.7999C96.2327 11.5495 96.307 11.3455 96.4553 11.1878C96.613 11.0208 96.8124 10.9374 97.0536 10.9374ZM95.9406 12.8433C96.2003 12.8433 96.4136 12.9314 96.5806 13.1076C96.7568 13.2746 96.8449 13.4925 96.8449 13.7615C96.8449 14.0305 96.7568 14.2531 96.5806 14.4293C96.4136 14.6055 96.2003 14.6936 95.9406 14.6936C95.6902 14.6936 95.4815 14.6055 95.3146 14.4293C95.1476 14.2531 95.0641 14.0305 95.0641 13.7615C95.0641 13.5018 95.1476 13.2839 95.3146 13.1076C95.4815 12.9314 95.6902 12.8433 95.9406 12.8433ZM98.1804 12.8433C98.4401 12.8433 98.6534 12.9314 98.8204 13.1076C98.9966 13.2746 99.0847 13.4925 99.0847 13.7615C99.0847 14.0305 98.9966 14.2531 98.8204 14.4293C98.6534 14.6055 98.4401 14.6936 98.1804 14.6936C97.93 14.6936 97.7213 14.6055 97.5544 14.4293C97.3875 14.2531 97.304 14.0305 97.304 13.7615C97.304 13.5018 97.3875 13.2839 97.5544 13.1076C97.7213 12.9314 97.93 12.8433 98.1804 12.8433Z" fill="white"/>
<path d="M17.7388 37.832C17.9242 37.832 18.017 38.1102 18.017 38.6667C18.017 39.2325 17.9242 39.5154 17.7388 39.5154H9.52292C8.40068 39.5154 7.6077 39.1861 7.14397 38.5276C6.36489 38.8893 5.60437 39.0702 4.8624 39.0702C4.18535 39.0702 3.56395 38.9171 2.99819 38.6111C2.43244 38.2957 1.98262 37.8737 1.64873 37.3451C1.31484 36.8072 1.14789 36.2136 1.14789 35.5643C1.14789 34.9244 1.31484 34.3355 1.64873 33.7975C1.98262 33.2596 2.43244 32.8376 2.99819 32.5315C3.57322 32.2162 4.19462 32.0585 4.8624 32.0585H6.64313V31.6968H8.4656V36.5521C8.4656 37.0158 8.55372 37.3451 8.72993 37.5399C8.90615 37.7346 9.23077 37.832 17.5162 37.832H17.7388ZM4.94587 37.3868C5.49307 37.3868 6.06347 37.2152 6.65705 36.8721C6.64777 36.8072 6.64313 36.7051 6.64313 36.566V33.7419H4.90414C4.5517 33.7419 4.22708 33.8253 3.9303 33.9923C3.63351 34.15 3.397 34.3679 3.22078 34.6462C3.05384 34.9244 2.97037 35.2305 2.97037 35.5643C2.97037 36.0745 3.15586 36.5057 3.52684 36.8582C3.89783 37.2106 4.37084 37.3868 4.94587 37.3868ZM5.98927 31.029C5.73885 31.029 5.53017 30.9409 5.36323 30.7647C5.19628 30.5885 5.11282 30.3705 5.11282 30.1108C5.11282 29.8326 5.19628 29.61 5.36323 29.4431C5.53017 29.2668 5.73885 29.1787 5.98927 29.1787C6.25823 29.1787 6.47619 29.2668 6.64313 29.4431C6.81008 29.61 6.89355 29.8326 6.89355 30.1108C6.89355 30.3705 6.80544 30.5885 6.62922 30.7647C6.46228 30.9409 6.24896 31.029 5.98927 31.029ZM3.74944 31.029C3.49902 31.029 3.29034 30.9409 3.1234 30.7647C2.95645 30.5885 2.87298 30.3705 2.87298 30.1108C2.87298 29.8326 2.95645 29.61 3.1234 29.4431C3.29034 29.2668 3.49902 29.1787 3.74944 29.1787C4.0184 29.1787 4.23636 29.2668 4.4033 29.4431C4.57025 29.61 4.65372 29.8326 4.65372 30.1108C4.65372 30.3705 4.56561 30.5885 4.38939 30.7647C4.22244 30.9409 4.00913 31.029 3.74944 31.029Z" fill="white"/>
<path d="M23.3309 37.832C23.5164 37.832 34.3903 38.1102 34.3903 38.6667C34.3903 39.2325 23.5164 39.5154 23.3309 39.5154H22.5797C21.7728 39.5154 21.1143 39.302 20.6042 38.8754C20.1497 39.302 19.4634 39.5154 18.5452 39.5154H17.7383C17.5528 39.5154 9.64769 39.2325 9.64769 38.6667C9.64769 38.1102 17.5528 37.832 17.7383 37.832H18.3644C18.8374 37.832 19.162 37.7346 19.3382 37.5399C19.5144 37.3451 19.6025 37.0158 19.6025 36.5521V32.6428H21.4111V36.566C21.4111 36.937 21.374 37.2848 21.2998 37.6094C21.5317 37.7578 21.8192 37.832 22.1623 37.832H23.3309ZM21.6337 42.4369C21.3833 42.4369 21.1746 42.3488 21.0076 42.1725C20.8407 41.9963 20.7572 41.7784 20.7572 41.5187C20.7572 41.2404 20.8407 41.0132 21.0076 40.837C21.1746 40.67 21.3833 40.5866 21.6337 40.5866C21.9026 40.5866 22.1206 40.67 22.2875 40.837C22.4545 41.0132 22.538 41.2404 22.538 41.5187C22.538 41.7784 22.4499 41.9963 22.2736 42.1725C22.1067 42.3488 21.8934 42.4369 21.6337 42.4369ZM19.3939 42.4369C19.1434 42.4369 18.9348 42.3488 18.7678 42.1725C18.6009 41.9963 18.5174 41.7784 18.5174 41.5187C18.5174 41.2404 18.6009 41.0132 18.7678 40.837C18.9348 40.67 19.1434 40.5866 19.3939 40.5866C19.6628 40.5866 19.8808 40.67 20.0477 40.837C20.2147 41.0132 20.2981 41.2404 20.2981 41.5187C20.2981 41.7784 20.21 41.9963 20.0338 42.1725C19.8669 42.3488 19.6535 42.4369 19.3939 42.4369Z" fill="white"/>
<path d="M38.5687 32.0724C39.3941 32.0724 40.1546 32.3646 40.8502 32.9489C41.5551 33.5332 42.1023 34.3262 42.4919 35.3278C42.8907 36.3295 43.0669 37.4239 43.0205 38.6111C42.3806 38.9079 41.685 39.1351 40.9337 39.2928C40.1917 39.4412 39.5193 39.5154 38.9165 39.5154C38.0168 39.5154 37.1404 39.3206 36.2871 38.931C35.8234 39.3206 35.2391 39.5154 34.5342 39.5154H23.3357C23.1502 39.5154 23.0575 39.2325 23.0575 38.6667C23.0575 38.1102 23.1502 37.832 23.3357 37.832H34.3116C34.5991 37.832 34.8217 37.7624 34.9794 37.6233C35.1463 37.4842 35.253 37.2662 35.2994 36.9695L35.3411 36.6077C35.4338 35.8843 35.5637 35.2119 35.7306 34.5905C35.9068 33.9691 36.2222 33.3941 36.6766 32.8654C37.1311 32.3368 37.7618 32.0724 38.5687 32.0724ZM37.1079 37.4007C37.4233 37.5491 37.7247 37.6604 38.0122 37.7346C38.2997 37.7995 38.6058 37.832 38.9304 37.832C39.6167 37.832 40.3587 37.7161 41.1563 37.4842C41.0821 36.8257 40.9152 36.2136 40.6555 35.6478C40.3958 35.0728 40.0851 34.6183 39.7234 34.2844C39.3709 33.9413 39.0139 33.7697 38.6521 33.7697C38.2904 33.7697 38.0075 33.9366 37.8035 34.2705C37.5995 34.5951 37.4557 34.9661 37.3722 35.3835C37.298 35.8009 37.2285 36.3017 37.1636 36.886C37.1543 37.0066 37.145 37.1086 37.1357 37.1921C37.1265 37.2755 37.1172 37.3451 37.1079 37.4007Z" fill="white"/>
<path d="M52.7843 37.832C52.9698 37.832 72.4373 38.1102 72.4373 38.6667C72.4373 39.2325 52.9698 39.5154 52.7843 39.5154H51.254C51.2355 40.5077 50.934 41.2822 50.3497 41.8387C49.7747 42.4044 48.991 42.6919 47.9986 42.7012L47.7343 40.99C47.8085 40.9993 47.9105 41.0039 48.0404 41.0039C48.5134 41.0039 48.8612 40.888 49.0837 40.6561C49.3063 40.4243 49.4223 40.044 49.4315 39.5154H47.9569C47.252 39.5154 46.5981 39.3577 45.9953 39.0423C45.4017 38.727 44.9287 38.2957 44.5763 37.7485C44.2238 37.1921 44.0476 36.5799 44.0476 35.9121C44.0476 35.2444 44.2238 34.6322 44.5763 34.0758C44.9287 33.5193 45.4017 33.0787 45.9953 32.7541C46.5981 32.4295 47.252 32.2672 47.9569 32.2672C48.4763 32.2672 49.0188 32.3646 49.5846 32.5594C50.1503 32.7448 50.6604 32.9953 51.1149 33.3106L51.254 33.3663V37.832H52.7843ZM45.8701 35.9121C45.8701 36.2739 45.9582 36.6031 46.1344 36.8999C46.3199 37.1874 46.5703 37.4146 46.8857 37.5816C47.2103 37.7485 47.5766 37.832 47.9847 37.832H49.4315V34.3123C48.9307 34.0711 48.4484 33.9506 47.9847 33.9506C47.5766 33.9506 47.2103 34.0387 46.8857 34.2149C46.5703 34.3911 46.3199 34.6276 46.1344 34.9244C45.9582 35.2212 45.8701 35.5504 45.8701 35.9121Z" fill="white"/>
<path d="M85.4319 37.832C85.6174 37.832 85.7102 38.1102 85.7102 38.6667C85.7102 39.2325 85.6174 39.5154 85.4319 39.5154H52.7839C52.5984 39.5154 52.5057 39.2325 52.5057 38.6667C52.5057 38.1102 52.5984 37.832 52.7839 37.832H76.374V37.7207C76.374 36.7376 76.156 35.9771 75.7201 35.4391C75.2842 34.9012 74.6628 34.6322 73.8559 34.6322L72.729 33.4497L76.3879 29.7352L77.5287 30.9177L75.3306 33.1297C76.2209 33.408 76.9212 33.9598 77.4313 34.7853C77.9414 35.6014 78.1964 36.617 78.1964 37.832H85.4319Z" fill="white"/>
<path d="M94.7884 37.832C94.9739 37.832 95.0667 38.1102 95.0667 38.6667C95.0667 39.2325 94.9739 39.5154 94.7884 39.5154H85.4256C85.2401 39.5154 79.6787 39.2325 79.6787 38.6667C79.6787 38.1102 85.2401 37.832 85.4256 37.832H90.9765V35.9956C90.9765 35.3186 90.7586 34.7806 90.3227 34.3818C89.8867 33.9737 89.3071 33.7697 88.5837 33.7697C87.7768 33.7697 87.0302 34.0201 86.3438 34.5209L85.5508 32.9628C86.469 32.3692 87.48 32.0724 88.5837 32.0724C89.3905 32.0724 90.114 32.2394 90.7539 32.5733C91.3939 32.9072 91.8947 33.3755 92.2564 33.9784C92.6181 34.572 92.799 35.2444 92.799 35.9956V37.832H94.7884Z" fill="white"/>
<path d="M97.694 29.1509V39.5154H94.7864C94.6009 39.5154 94.5081 39.2325 94.5081 38.6667C94.5081 38.1102 94.6009 37.832 94.7864 37.832H95.8715V29.1509H97.694Z" fill="white"/>
<path d="M99.977 29.1509H101.786V39.5154H99.977V29.1509Z" fill="white"/>
<defs>
<clipPath id="clip0_213_547">
<rect width="54.9992" height="53.6209" fill="white" transform="translate(110.01)"/>
</clipPath>
</defs>
</svg>
