<svg width="88" height="86" viewBox="0 0 88 86" fill="none" xmlns="http://www.w3.org/2000/svg">
<g clip-path="url(#clip0_212_98)">
<path fill-rule="evenodd" clip-rule="evenodd" d="M80.3712 30.0805C81.7289 28.4187 83.0885 26.7544 84.4305 25.0701L84.4293 25.0713C84.3374 25.0228 84.2542 24.9783 84.1769 24.9369C83.9983 24.8414 83.8508 24.7625 83.6999 24.6895C83.188 24.4427 82.6763 24.1958 82.1645 23.9489C79.2479 22.5418 75.7476 21.0276 72.8237 19.6344C71.9326 15.6331 69.946 6.93831 69.946 6.93831C69.946 6.93831 62.2848 10.8219 58.4158 12.6827L55.5855 0.0121575L43.9484 5.71524L32.4157 0C32.4157 0 30.4845 8.45666 29.5428 12.6208L43.9484 5.71524L58.4158 12.6827C62.9712 14.8502 68.2365 17.5336 72.8237 19.6344C73.1488 21.0911 73.5542 23.1952 73.8594 24.6694C74.5833 28.1659 75.3112 31.78 76.3263 35.1718C77.6596 33.4982 79.0144 31.7414 80.3712 30.0805Z" fill="#296436"/>
<path d="M69.9059 63.28L69.9146 63.2801C69.2529 59.9942 68.4894 56.738 67.7022 53.4795C67.2155 51.4647 66.731 49.4588 66.3012 47.5968C64.178 50.2692 62.0083 52.9948 59.8259 55.7361C57.8831 58.1765 55.9304 60.6294 53.9917 63.0685C59.0827 63.0823 64.8128 63.2788 69.9059 63.28Z" fill="#51B749"/>
<path d="M72.0785 75.8278H72.8577C72.4294 73.8396 71.9766 71.8805 71.5242 69.9235L71.5239 69.922C71.0199 67.7414 70.3742 65.4929 69.9059 63.28C66.9443 67.4509 63.4554 71.3323 60.2759 75.3367C60.0571 75.6126 59.8322 75.7537 59.465 75.7537C54.3073 75.7437 43.9921 75.7804 43.9921 75.7804L51.9614 85.8931L59.5866 76.3579C59.8905 75.9725 60.2151 75.8157 60.7112 75.8181C63.5521 75.8327 66.3924 75.8309 69.233 75.8291H69.2369C70.1841 75.8285 71.1312 75.8278 72.0785 75.8278Z" fill="#296436"/>
<path d="M49.9246 68.4432L49.9274 68.4397C51.1638 66.8884 52.7674 64.6295 53.9917 63.0685L33.9803 63.1962C34.9183 64.3821 35.9385 65.6927 36.9683 67.0158L36.9685 67.0161C38.3828 68.8332 43.9921 75.7804 43.9921 75.7804C43.9921 75.7804 48.0922 70.741 49.9246 68.4432Z" fill="#51B749"/>
<path d="M11.6554 35.1582L21.6404 47.6576C23.1054 41.2348 24.5193 34.5566 25.9564 28.2578C21.1821 30.5411 16.3693 32.7517 11.6554 35.1582Z" fill="#51B749"/>
<path d="M29.5428 12.6208L17.9871 7.05138C17.0197 11.2372 16.2282 15.4965 15.0754 19.6344C15.0754 19.6344 24.7687 14.9939 29.5428 12.6208Z" fill="#296436"/>
<path d="M15.0754 19.6344L3.52812 25.1564L11.6554 35.1582C11.6554 35.1582 13.9285 24.7649 15.0754 19.6344Z" fill="#296436"/>
<path d="M69.9146 63.2801L82.7893 63.3506C81.9936 59.9085 80.7171 54.235 79.8143 50.8186C79.3326 51.4219 70.4332 62.631 69.9146 63.2801Z" fill="#296436"/>
<path d="M79.8143 50.8186L87.9988 40.7363C84.1327 38.8713 80.1985 37.0392 76.3263 35.1718C76.6287 36.5028 79.8143 50.8186 79.8143 50.8186Z" fill="#296436"/>
<path d="M11.6554 35.1582L0 40.7655C2.63598 44.1712 5.39531 47.4726 8.09109 50.8287C9.22766 46.0366 11.6554 35.1582 11.6554 35.1582Z" fill="#296436"/>
<path d="M5.14386 63.3676L18.0494 63.2766C14.756 59.1058 11.4377 54.957 8.09109 50.8287L5.14386 63.3676Z" fill="#296436"/>
<path d="M26.6218 63.2788C29.1221 63.2404 31.6176 63.202 33.9803 63.1962C29.8601 58.0316 25.7473 52.8063 21.6404 47.6576C20.5487 52.3468 19.118 58.5813 18.0494 63.2766C20.5874 63.2753 23.9361 63.3201 26.6218 63.2788Z" fill="#51B749"/>
<path d="M15.1021 75.8291L28.0076 75.8266L18.0494 63.2766L15.1021 75.8291Z" fill="#296436"/>
<path d="M35.8411 85.7038C35.8929 85.7621 35.9475 85.8237 36.0058 85.8906L43.9921 75.7804L28.0076 75.8266C28.0076 75.8266 32.1435 81.0947 34.097 83.5429L34.0993 83.5458L34.1282 83.5819C34.6025 84.1764 35.0769 84.7708 35.5511 85.3654C35.6392 85.4764 35.7333 85.5824 35.8397 85.7022L35.8399 85.7024L35.8411 85.7038Z" fill="#296436"/>
<path d="M61.8819 28.2055C62.5817 31.2728 66.3012 47.5968 66.3012 47.5968C69.6376 43.4441 73.138 39.443 76.3263 35.1718C71.5812 32.724 66.7497 30.4006 61.8819 28.2055Z" fill="#51B749"/>
<path d="M58.4158 12.6827L43.9495 19.5129L61.8819 28.2055L58.4158 12.6827Z" fill="#51B749"/>
<path d="M29.5428 12.6208L25.9564 28.2578L43.9495 19.5129L29.5428 12.6208Z" fill="#51B749"/>
<path d="M59.3493 41.0815C55.359 39.4084 50.8352 39.4447 46.8881 41.1264C48.67 38.3224 51.4361 36.2849 54.7132 35.4216L55.8787 35.1142C55.9305 35.1004 55.9495 35.0365 55.915 34.9968L55.1535 34.1301C54.4439 33.3237 53.3043 33.0405 52.3028 33.429C49.4901 34.522 47.0728 36.373 45.2979 38.773V32.3464C45.2979 31.989 45.1597 31.6437 44.9128 31.3847L44.5519 31.0048C44.2394 30.6768 43.7145 30.6768 43.4003 31.0048L43.0377 31.3847C42.7908 31.6437 42.6526 31.989 42.6526 32.3464V38.6763C40.8897 36.3315 38.5104 34.5203 35.7478 33.4411C34.736 33.0457 33.5878 33.3168 32.8712 34.1318L32.108 34.9986C32.0718 35.04 32.0925 35.1022 32.1443 35.116L33.3098 35.4233C36.5869 36.2866 39.353 38.3241 41.1349 41.1281C37.1861 39.4464 32.664 39.4101 28.6737 41.0833C27.6809 41.4976 27.061 42.4974 27.1146 43.5713L27.1715 44.7213C27.1733 44.7748 27.232 44.8076 27.2803 44.78L28.3301 44.1895C32.1546 42.0364 36.8028 41.9431 40.6825 43.8269C38.286 44.3846 36.0517 45.4914 34.1524 47.0644C33.3184 47.755 33.0042 48.8911 33.3685 49.9099L33.757 50.9959C33.7742 51.046 33.8398 51.0598 33.8778 51.0218L34.7118 50.1516C36.8304 47.938 39.6293 46.5377 42.6544 46.1579L42.6526 63.2188H45.2979L45.2996 46.1492C48.354 46.5135 51.1805 47.919 53.3181 50.1516L54.1504 51.0218C54.1883 51.0615 54.2522 51.0477 54.2712 50.9959L54.6597 49.9099C55.024 48.8911 54.7098 47.7533 53.8758 47.0644C51.9748 45.4897 49.7422 44.3846 47.3439 43.8269C51.2237 41.9431 55.8718 42.0364 59.6963 44.1895L60.7461 44.78C60.7928 44.8059 60.8515 44.7748 60.8549 44.7213L60.9119 43.5713C60.9654 42.4974 60.3456 41.4976 59.3545 41.0833" fill="#296436"/>
<circle cx="81.4356" cy="8.86331" r="3.53539" stroke="#296436" stroke-width="0.432201"/>
<mask id="path-4-outside-1_212_98" maskUnits="userSpaceOnUse" x="79.8833" y="6.14697" width="3" height="5" fill="black">
<rect fill="white" x="79.8833" y="6.14697" width="3" height="5"/>
<path d="M80.334 10.147V6.85413H81.4466C81.7039 6.85413 81.915 6.89808 82.0801 6.98597C82.2452 7.07279 82.3674 7.19231 82.4467 7.34452C82.526 7.49673 82.5657 7.66984 82.5657 7.86385C82.5657 8.05786 82.526 8.2299 82.4467 8.37996C82.3674 8.53003 82.2457 8.64794 82.0817 8.73369C81.9177 8.81837 81.7082 8.86071 81.453 8.86071H80.5527V8.50055H81.4402C81.616 8.50055 81.7575 8.47483 81.8646 8.42337C81.9729 8.37192 82.0512 8.29904 82.0994 8.20471C82.1487 8.10931 82.1734 7.99569 82.1734 7.86385C82.1734 7.73201 82.1487 7.61678 82.0994 7.51816C82.0501 7.41955 81.9713 7.34345 81.863 7.28985C81.7548 7.23519 81.6117 7.20785 81.4337 7.20785H80.7327V10.147H80.334ZM81.8839 8.66777L82.6943 10.147H82.2312L81.4337 8.66777H81.8839Z"/>
</mask>
<path d="M80.334 10.147V6.85413H81.4466C81.7039 6.85413 81.915 6.89808 82.0801 6.98597C82.2452 7.07279 82.3674 7.19231 82.4467 7.34452C82.526 7.49673 82.5657 7.66984 82.5657 7.86385C82.5657 8.05786 82.526 8.2299 82.4467 8.37996C82.3674 8.53003 82.2457 8.64794 82.0817 8.73369C81.9177 8.81837 81.7082 8.86071 81.453 8.86071H80.5527V8.50055H81.4402C81.616 8.50055 81.7575 8.47483 81.8646 8.42337C81.9729 8.37192 82.0512 8.29904 82.0994 8.20471C82.1487 8.10931 82.1734 7.99569 82.1734 7.86385C82.1734 7.73201 82.1487 7.61678 82.0994 7.51816C82.0501 7.41955 81.9713 7.34345 81.863 7.28985C81.7548 7.23519 81.6117 7.20785 81.4337 7.20785H80.7327V10.147H80.334ZM81.8839 8.66777L82.6943 10.147H82.2312L81.4337 8.66777H81.8839Z" fill="#296436"/>
<path d="M80.334 10.147H80.2402V10.2408H80.334V10.147ZM80.334 6.85413V6.76034H80.2402V6.85413H80.334ZM82.0801 6.98597L82.036 7.06875L82.0364 7.06898L82.0801 6.98597ZM82.4467 7.34452L82.3635 7.38786V7.38786L82.4467 7.34452ZM82.4467 8.37996L82.3638 8.33614L82.4467 8.37996ZM82.0817 8.73369L82.1247 8.81702L82.1252 8.8168L82.0817 8.73369ZM80.5527 8.86071H80.4589V8.95449H80.5527V8.86071ZM80.5527 8.50055V8.40676H80.4589V8.50055H80.5527ZM81.8646 8.42337L81.8244 8.33867L81.8241 8.33882L81.8646 8.42337ZM82.0994 8.20471L82.0161 8.16165L82.0159 8.16201L82.0994 8.20471ZM81.863 7.28985L81.8208 7.37357L81.8214 7.3739L81.863 7.28985ZM80.7327 7.20785V7.11406H80.6389V7.20785H80.7327ZM80.7327 10.147V10.2408H80.8265V10.147H80.7327ZM81.8839 8.66777L81.9662 8.6227L81.9395 8.57398H81.8839V8.66777ZM82.6943 10.147V10.2408H82.8526L82.7765 10.1019L82.6943 10.147ZM82.2312 10.147L82.1487 10.1915L82.1752 10.2408H82.2312V10.147ZM81.4337 8.66777V8.57398H81.2766L81.3512 8.71227L81.4337 8.66777ZM80.334 10.147H80.4278V6.85413H80.334H80.2402V10.147H80.334ZM80.334 6.85413V6.94792H81.4466V6.85413V6.76034H80.334V6.85413ZM81.4466 6.85413V6.94792C81.694 6.94792 81.8886 6.99028 82.036 7.06875L82.0801 6.98597L82.1242 6.90319C81.9414 6.80587 81.7138 6.76034 81.4466 6.76034V6.85413ZM82.0801 6.98597L82.0364 7.06898C82.1861 7.14772 82.2938 7.25407 82.3635 7.38786L82.4467 7.34452L82.5299 7.30118C82.4409 7.13055 82.3042 6.99787 82.1238 6.90296L82.0801 6.98597ZM82.4467 7.34452L82.3635 7.38786C82.435 7.52503 82.4719 7.68294 82.4719 7.86385H82.5657H82.6594C82.6594 7.65673 82.617 7.46843 82.5299 7.30117L82.4467 7.34452ZM82.5657 7.86385H82.4719C82.4719 8.04479 82.435 8.2014 82.3638 8.33614L82.4467 8.37996L82.5296 8.42379C82.617 8.2584 82.6594 8.07093 82.6594 7.86385H82.5657ZM82.4467 8.37996L82.3638 8.33614C82.2941 8.46789 82.187 8.57279 82.0382 8.65057L82.0817 8.73369L82.1252 8.8168C82.3044 8.72308 82.4406 8.59216 82.5296 8.42379L82.4467 8.37996ZM82.0817 8.73369L82.0387 8.65035C81.8921 8.72605 81.6986 8.76692 81.453 8.76692V8.86071V8.95449C81.7177 8.95449 81.9433 8.91068 82.1247 8.81702L82.0817 8.73369ZM81.453 8.86071V8.76692H80.5527V8.86071V8.95449H81.453V8.86071ZM80.5527 8.86071H80.6464V8.50055H80.5527H80.4589V8.86071H80.5527ZM80.5527 8.50055V8.59434H81.4402V8.50055V8.40676H80.5527V8.50055ZM81.4402 8.50055V8.59434C81.6238 8.59434 81.7808 8.56766 81.9052 8.50793L81.8646 8.42337L81.8241 8.33882C81.7341 8.38199 81.6081 8.40676 81.4402 8.40676V8.50055ZM81.8646 8.42337L81.9049 8.50808C82.0292 8.44899 82.124 8.3625 82.1829 8.24741L82.0994 8.20471L82.0159 8.16201C81.9783 8.23557 81.9166 8.29485 81.8244 8.33867L81.8646 8.42337ZM82.0994 8.20471L82.1827 8.24777C82.2403 8.13637 82.2671 8.00731 82.2671 7.86385H82.1734H82.0796C82.0796 7.98407 82.0571 8.08226 82.0161 8.16165L82.0994 8.20471ZM82.1734 7.86385H82.2671C82.2671 7.72027 82.2402 7.59017 82.1833 7.47622L82.0994 7.51816L82.0155 7.56011C82.0571 7.64339 82.0796 7.74374 82.0796 7.86385H82.1734ZM82.0994 7.51816L82.1833 7.47622C82.124 7.35758 82.0294 7.26754 81.9046 7.2058L81.863 7.28985L81.8214 7.3739C81.9132 7.41935 81.9762 7.48152 82.0155 7.56011L82.0994 7.51816ZM81.863 7.28985L81.9053 7.20613C81.7793 7.14248 81.62 7.11406 81.4337 7.11406V7.20785V7.30164C81.6033 7.30164 81.7303 7.32789 81.8208 7.37357L81.863 7.28985ZM81.4337 7.20785V7.11406H80.7327V7.20785V7.30164H81.4337V7.20785ZM80.7327 7.20785H80.6389V10.147H80.7327H80.8265V7.20785H80.7327ZM80.7327 10.147V10.0532H80.334V10.147V10.2408H80.7327V10.147ZM81.8839 8.66777L81.8017 8.71283L82.612 10.192L82.6943 10.147L82.7765 10.1019L81.9662 8.6227L81.8839 8.66777ZM82.6943 10.147V10.0532H82.2312V10.147V10.2408H82.6943V10.147ZM82.2312 10.147L82.3138 10.1025L81.5163 8.62326L81.4337 8.66777L81.3512 8.71227L82.1487 10.1915L82.2312 10.147ZM81.4337 8.66777V8.76155H81.8839V8.66777V8.57398H81.4337V8.66777Z" fill="#296436" mask="url(#path-4-outside-1_212_98)"/>
</g>
<defs>
<clipPath id="clip0_212_98">
<rect width="88" height="85.7946" fill="white"/>
</clipPath>
</defs>
</svg>
