<svg width="138" height="138" viewBox="0 0 138 138" fill="none" xmlns="http://www.w3.org/2000/svg">
<path d="M34.5 51.75C14.8293 51.75 0 60.4038 0 71.875V117.875C0 129.346 14.8293 138 34.5 138C54.1707 138 69 129.346 69 117.875V71.875C69 60.4038 54.1707 51.75 34.5 51.75ZM57.5 94.875C57.5 97.9167 48.7658 103.5 34.5 103.5C20.2343 103.5 11.5 97.9167 11.5 94.875V87.124C17.5145 90.1888 25.5012 92 34.5 92C43.4987 92 51.4855 90.1888 57.5 87.124V94.875ZM34.5 63.25C48.7658 63.25 57.5 68.8333 57.5 71.875C57.5 74.9167 48.7658 80.5 34.5 80.5C20.2343 80.5 11.5 74.9167 11.5 71.875C11.5 68.8333 20.2343 63.25 34.5 63.25ZM34.5 126.5C20.2343 126.5 11.5 120.917 11.5 117.875V110.124C17.5145 113.189 25.5012 115 34.5 115C43.4987 115 51.4855 113.189 57.5 110.124V117.875C57.5 120.917 48.7658 126.5 34.5 126.5ZM138 28.75V109.25C138 125.103 125.103 138 109.25 138H80.5C77.3203 138 74.75 135.424 74.75 132.25C74.75 129.076 77.3203 126.5 80.5 126.5H109.25C118.76 126.5 126.5 118.76 126.5 109.25V28.75C126.5 19.2395 118.76 11.5 109.25 11.5H51.75C42.2395 11.5 34.5 19.2395 34.5 28.75V34.5C34.5 37.674 31.9298 40.25 28.75 40.25C25.5702 40.25 23 37.674 23 34.5V28.75C23 12.8973 35.8973 0 51.75 0H109.25C125.103 0 138 12.8973 138 28.75ZM74.75 57.5C71.5703 57.5 69 54.924 69 51.75C69 48.576 71.5703 46 74.75 46H103.5V34.5H57.5V37.375C57.5 40.549 54.9297 43.125 51.75 43.125C48.5703 43.125 46 40.549 46 37.375V34.5C46 28.1577 51.1577 23 57.5 23H103.5C109.842 23 115 28.1577 115 34.5V46C115 52.3423 109.842 57.5 103.5 57.5H74.75ZM80.5 103.5C80.5 100.326 83.0703 97.75 86.25 97.75H109.25C112.43 97.75 115 100.326 115 103.5C115 106.674 112.43 109.25 109.25 109.25H86.25C83.0703 109.25 80.5 106.674 80.5 103.5ZM80.5 80.5V74.75C80.5 71.576 83.0703 69 86.25 69C89.4297 69 92 71.576 92 74.75V80.5C92 83.674 89.4297 86.25 86.25 86.25C83.0703 86.25 80.5 83.674 80.5 80.5ZM115 80.5C115 83.674 112.43 86.25 109.25 86.25C106.07 86.25 103.5 83.674 103.5 80.5V74.75C103.5 71.576 106.07 69 109.25 69C112.43 69 115 71.576 115 74.75V80.5Z" fill="white"/>
</svg>
