<svg width="138" height="138" viewBox="0 0 138 138" fill="none" xmlns="http://www.w3.org/2000/svg">
<path d="M80.5 -1.46031e-05C38.3237 -1.08676 9.19994 47.4547 29.5492 84.0535L5.05419 108.554C1.91197 111.808 0.173263 116.165 0.212566 120.688C0.251869 125.211 2.06603 129.537 5.26432 132.736C8.46261 135.934 12.7891 137.748 17.312 137.787C21.8349 137.827 26.1923 136.088 29.4457 132.946L53.9464 108.451C90.5509 128.8 139.087 99.682 138 57.5C137.983 42.2552 131.92 27.6396 121.14 16.8598C110.36 6.08012 95.7448 0.0167271 80.5 -1.46031e-05ZM80.5 97.75C27.3067 96.025 27.3182 18.9405 80.5 17.25C82.0249 17.25 83.4875 17.8558 84.5658 18.9341C85.6441 20.0125 86.25 21.475 86.25 23C86.25 24.525 85.6441 25.9875 84.5658 27.0658C83.4875 28.1442 82.0249 28.75 80.5 28.75C42.5097 29.9575 42.5097 85.0482 80.5 86.25C88.1221 86.2409 95.4295 83.2089 100.819 77.8192C106.209 72.4295 109.241 65.1222 109.25 57.5C109.25 55.975 109.856 54.5125 110.934 53.4341C112.012 52.3558 113.475 51.75 115 51.75C116.525 51.75 117.987 52.3558 119.066 53.4341C120.144 54.5125 120.75 55.975 120.75 57.5C120.736 68.1708 116.491 78.4005 108.946 85.9459C101.4 93.4913 91.1707 97.7363 80.5 97.75Z" fill="white"/>
</svg>
