<svg width="116" height="138" viewBox="0 0 116 138" fill="none" xmlns="http://www.w3.org/2000/svg">
<path d="M115.5 28.75V109.25C115.5 125.103 102.603 138 86.75 138H29.25C13.3973 138 0.5 125.103 0.5 109.25V28.75C0.5 12.8973 13.3973 0 29.25 0H35C38.174 0 40.75 2.576 40.75 5.75C40.75 8.924 38.174 11.5 35 11.5H29.25C19.7395 11.5 12 19.2395 12 28.75V109.25C12 118.76 19.7395 126.5 29.25 126.5H86.75C96.2605 126.5 104 118.76 104 109.25V28.75C104 24.7882 102.689 21.0565 100.216 17.9688C98.2327 15.4905 98.6295 11.8737 101.108 9.88425C103.58 7.89475 107.197 8.28575 109.192 10.7755C113.263 15.847 115.5 22.241 115.5 28.75ZM35 109.25H81C84.174 109.25 86.75 106.674 86.75 103.5C86.75 100.326 84.174 97.75 81 97.75H35C31.826 97.75 29.25 100.326 29.25 103.5C29.25 106.674 31.826 109.25 35 109.25ZM52.25 63.25C55.424 63.25 58 60.674 58 57.5V23C58 16.6577 63.1577 11.5 69.5 11.5C75.8422 11.5 81 16.6577 81 23V66.125C81 67.712 79.712 69 78.125 69C76.538 69 75.25 67.712 75.25 66.125V28.75C75.25 25.576 72.674 23 69.5 23C66.326 23 63.75 25.576 63.75 28.75V66.125C63.75 74.0485 70.2015 80.5 78.125 80.5C86.0485 80.5 92.5 74.0485 92.5 66.125V23C92.5 10.3155 82.1845 0 69.5 0C56.8155 0 46.5 10.3155 46.5 23V57.5C46.5 60.674 49.076 63.25 52.25 63.25ZM35 86.25H49.375C52.549 86.25 55.125 83.674 55.125 80.5C55.125 77.326 52.549 74.75 49.375 74.75H35C31.826 74.75 29.25 77.326 29.25 80.5C29.25 83.674 31.826 86.25 35 86.25Z" fill="white"/>
</svg>
