<svg width="138" height="137" viewBox="0 0 138 137" fill="none" xmlns="http://www.w3.org/2000/svg">
<path d="M126.5 52.5724C126.5 52.3072 126.605 52.0529 126.793 51.8654L136.293 42.3654C136.923 41.7354 138 42.1816 138 43.0725V114C138 114.552 137.552 115 137 115H98.5952L76.475 133.285C74.3992 135.136 71.737 136.068 69.046 136.068C66.309 136.068 63.5547 135.102 61.3582 133.147L39.8015 115H0.999999C0.447715 115 0 114.552 0 114V17.25C0 7.7395 7.7395 0 17.25 0H94.9333C95.8242 0 96.2704 1.07714 95.6404 1.70711L86.1404 11.2071C85.9529 11.3946 85.6985 11.5 85.4333 11.5H17.25C14.076 11.5 11.5 14.0817 11.5 17.25V103.5H44.0047L68.885 124.459L94.461 103.5H126.494L126.5 52.5724ZM63.25 50.3527L108.554 5.05425C115.282 -1.67325 126.218 -1.67325 132.946 5.05425C136.2 8.30875 138 12.6443 138 17.25C138 21.8557 136.2 26.1913 132.946 29.4515L87.6415 74.75H63.25V50.3527ZM74.75 63.25H82.8805L124.815 21.3153C125.902 20.2285 126.5 18.7852 126.5 17.25C126.5 15.7148 125.902 14.2715 124.815 13.1847C122.567 10.9365 118.933 10.9422 116.685 13.1847L74.75 55.1138V63.25Z" fill="white"/>
</svg>
