<svg width="116" height="138" viewBox="0 0 116 138" fill="none" xmlns="http://www.w3.org/2000/svg">
<path d="M109.75 132.25C109.75 135.43 107.174 138 104 138C100.826 138 98.25 135.43 98.25 132.25C98.25 119.565 87.9345 109.25 75.25 109.25H40.75C28.0655 109.25 17.75 119.565 17.75 132.25C17.75 135.43 15.174 138 12 138C8.826 138 6.25 135.43 6.25 132.25C6.25 113.223 21.7233 97.75 40.75 97.75H75.25C94.2768 97.75 109.75 113.223 109.75 132.25ZM115.5 43.125V54.625C115.5 59.3802 111.63 63.25 106.875 63.25H104C104 75.9345 93.6845 86.25 81 86.25H35C22.3155 86.25 12 75.9345 12 63.25H9.125C4.36975 63.25 0.5 59.3802 0.5 54.625V43.125C0.5 38.3698 4.36975 34.5 9.125 34.5H12C12 21.8155 22.3155 11.5 35 11.5H52.25V5.75C52.25 2.57025 54.826 0 58 0C61.174 0 63.75 2.57025 63.75 5.75V11.5H81C93.6845 11.5 104 21.8155 104 34.5H106.875C111.63 34.5 115.5 38.3698 115.5 43.125ZM92.5 34.5C92.5 28.1577 87.3423 23 81 23H35C28.6578 23 23.5 28.1577 23.5 34.5V63.25C23.5 69.5922 28.6578 74.75 35 74.75H81C87.3423 74.75 92.5 69.5922 92.5 63.25V34.5ZM43.625 40.25C38.864 40.25 35 44.114 35 48.875C35 53.636 38.864 57.5 43.625 57.5C48.386 57.5 52.25 53.636 52.25 48.875C52.25 44.114 48.386 40.25 43.625 40.25ZM72.375 40.25C67.614 40.25 63.75 44.114 63.75 48.875C63.75 53.636 67.614 57.5 72.375 57.5C77.136 57.5 81 53.636 81 48.875C81 44.114 77.136 40.25 72.375 40.25Z" fill="white"/>
</svg>
