<svg width="19" height="18" viewBox="0 0 19 18" fill="none" xmlns="http://www.w3.org/2000/svg">
<path d="M15.8369 15.3372H13.1698V11.1604C13.1698 10.1644 13.152 8.88221 11.7827 8.88221C10.3936 8.88221 10.1811 9.96739 10.1811 11.0879V15.3369H7.51403V6.74767H10.0744V7.92149H10.1102C10.3665 7.48337 10.7367 7.12295 11.1816 6.87862C11.6264 6.63429 12.1292 6.5152 12.6364 6.53402C15.3396 6.53402 15.838 8.31211 15.838 10.6253L15.8369 15.3372ZM4.50472 5.57358C4.19861 5.57363 3.89936 5.48291 3.64481 5.31289C3.39026 5.14286 3.19184 4.90117 3.07465 4.61837C2.95746 4.33558 2.92675 4.02438 2.98641 3.72413C3.04608 3.42388 3.19344 3.14807 3.40985 2.93157C3.62626 2.71507 3.90201 2.56761 4.20223 2.50784C4.50244 2.44806 4.81364 2.47866 5.09647 2.59575C5.3793 2.71285 5.62106 2.91119 5.79117 3.16569C5.96128 3.42019 6.0521 3.71941 6.05216 4.02553C6.0522 4.22879 6.0122 4.43006 5.93445 4.61786C5.85671 4.80566 5.74273 4.9763 5.59904 5.12005C5.45535 5.2638 5.28475 5.37784 5.09699 5.45566C4.90922 5.53347 4.70797 5.57354 4.50472 5.57358ZM5.83824 15.3372H3.16843V6.74767H5.83824V15.3372ZM17.1665 0.00122592H1.82824C1.48011 -0.00270291 1.14465 0.131747 0.895594 0.375031C0.646536 0.618315 0.504249 0.95053 0.5 1.29867V16.7011C0.504103 17.0494 0.646299 17.3818 0.895349 17.6254C1.1444 17.8689 1.47993 18.0036 1.82824 17.9999H17.1665C17.5155 18.0043 17.8519 17.8699 18.102 17.6264C18.352 17.3829 18.4952 17.0501 18.5 16.7011V1.29756C18.495 0.948728 18.3518 0.616137 18.1017 0.372858C17.8517 0.12958 17.5153 -0.00448607 17.1665 0.000114616" fill="#0A66C2"/>
</svg>
