<svg width="18" height="20" viewBox="0 0 18 20" fill="none" xmlns="http://www.w3.org/2000/svg">
<path d="M17.3332 4.16667V15.8333C17.3332 18.1308 15.464 20 13.1665 20H4.83317C2.53567 20 0.666504 18.1308 0.666504 15.8333V4.16667C0.666504 1.86917 2.53567 0 4.83317 0H5.6665C6.1265 0 6.49984 0.373333 6.49984 0.833333C6.49984 1.29333 6.1265 1.66667 5.6665 1.66667H4.83317C3.45484 1.66667 2.33317 2.78833 2.33317 4.16667V15.8333C2.33317 17.2117 3.45484 18.3333 4.83317 18.3333H13.1665C14.5448 18.3333 15.6665 17.2117 15.6665 15.8333V4.16667C15.6665 3.5925 15.4765 3.05167 15.1182 2.60417C14.8307 2.245 14.8882 1.72083 15.2473 1.4325C15.6057 1.14417 16.1298 1.20083 16.419 1.56167C17.009 2.29667 17.3332 3.22333 17.3332 4.16667ZM5.6665 15.8333H12.3332C12.7932 15.8333 13.1665 15.46 13.1665 15C13.1665 14.54 12.7932 14.1667 12.3332 14.1667H5.6665C5.2065 14.1667 4.83317 14.54 4.83317 15C4.83317 15.46 5.2065 15.8333 5.6665 15.8333ZM8.1665 9.16667C8.6265 9.16667 8.99984 8.79333 8.99984 8.33333V3.33333C8.99984 2.41417 9.74734 1.66667 10.6665 1.66667C11.5857 1.66667 12.3332 2.41417 12.3332 3.33333V9.58333C12.3332 9.81333 12.1465 10 11.9165 10C11.6865 10 11.4998 9.81333 11.4998 9.58333V4.16667C11.4998 3.70667 11.1265 3.33333 10.6665 3.33333C10.2065 3.33333 9.83317 3.70667 9.83317 4.16667V9.58333C9.83317 10.7317 10.7682 11.6667 11.9165 11.6667C13.0648 11.6667 13.9998 10.7317 13.9998 9.58333V3.33333C13.9998 1.495 12.5048 0 10.6665 0C8.82817 0 7.33317 1.495 7.33317 3.33333V8.33333C7.33317 8.79333 7.7065 9.16667 8.1665 9.16667ZM5.6665 12.5H7.74984C8.20984 12.5 8.58317 12.1267 8.58317 11.6667C8.58317 11.2067 8.20984 10.8333 7.74984 10.8333H5.6665C5.2065 10.8333 4.83317 11.2067 4.83317 11.6667C4.83317 12.1267 5.2065 12.5 5.6665 12.5Z" fill="#A9A9A9"/>
</svg>
