<svg width="20" height="20" viewBox="0 0 20 20" fill="none" xmlns="http://www.w3.org/2000/svg">
<path d="M18.3333 7.9043C18.3333 7.68331 18.4211 7.47138 18.5774 7.31512C19.1024 6.79014 20 7.16195 20 7.90439V15.6667C20 16.219 19.5523 16.6667 19 16.6667H14.2892L11.0833 19.3167C10.7825 19.585 10.3967 19.72 10.0067 19.72C9.61 19.72 9.21083 19.58 8.8925 19.2967L5.76833 16.6667H1C0.447717 16.6667 0 16.219 0 15.6667V2.5C0 1.12167 1.12167 0 2.5 0H12.0965C12.8389 0 13.2107 0.897618 12.6857 1.42259C12.5295 1.57887 12.3175 1.66667 12.0965 1.66667H2.5C2.04 1.66667 1.66667 2.04083 1.66667 2.5V15H6.3775L9.98333 18.0375L13.69 15H18.3325L18.3333 7.9043ZM9.16667 7.2975L15.7325 0.7325C16.7075 -0.2425 18.2925 -0.2425 19.2675 0.7325C19.7392 1.20417 20 1.8325 20 2.5C20 3.1675 19.7392 3.79583 19.2675 4.26833L12.7017 10.8333H9.16667V7.2975ZM10.8333 9.16667H12.0117L18.0892 3.08917C18.2467 2.93167 18.3333 2.7225 18.3333 2.5C18.3333 2.2775 18.2467 2.06833 18.0892 1.91083C17.7633 1.585 17.2367 1.58583 16.9108 1.91083L10.8333 7.9875V9.16667Z" fill="#A9A9A9"/>
</svg>
