<svg width="20" height="20" viewBox="0 0 20 20" fill="none" xmlns="http://www.w3.org/2000/svg">
<path d="M11.6673 6.2058e-05C5.55396 -0.158271 1.33396 6.87756 4.28313 12.1826L0.732295 15.7326C0.263414 16.2014 0 16.8374 0 17.5005C0 17.8288 0.0646699 18.1539 0.190317 18.4573C0.315965 18.7606 0.500129 19.0362 0.732295 19.2684C0.964461 19.5006 1.24008 19.6847 1.54342 19.8104C1.84676 19.936 2.17188 20.0007 2.50021 20.0007C3.16331 20.0007 3.79925 19.7373 4.26813 19.2684L7.81813 15.7176C13.124 18.6667 20.1581 14.4467 20.0006 8.3334C19.9978 6.12414 19.1189 4.00619 17.5567 2.44401C15.9945 0.881823 13.8766 0.00292851 11.6673 6.2058e-05ZM3.0898 18.0901C2.93354 18.2464 2.72157 18.3343 2.50051 18.3344C2.27945 18.3345 2.06741 18.2467 1.91105 18.0905C1.75468 17.9342 1.66679 17.7222 1.66671 17.5012C1.66663 17.2801 1.75437 17.0681 1.91063 16.9117L5.21813 13.6034C5.57126 14.0344 5.96625 14.4294 6.3973 14.7826L3.0898 18.0901ZM11.6673 15.0001C9.8998 14.9981 8.20526 14.2951 6.95544 13.0452C5.70563 11.7954 5.00261 10.1009 5.00063 8.3334C5.31313 -0.490771 18.0223 -0.488271 18.334 8.3334C18.3318 10.1008 17.6287 11.7952 16.3789 13.045C15.1291 14.2948 13.4347 14.9979 11.6673 15.0001ZM16.6673 8.3334C16.4581 14.9417 6.87563 14.9401 6.6673 8.3334C6.66884 7.00779 7.19612 5.73691 8.13347 4.79957C9.07081 3.86222 10.3417 3.33494 11.6673 3.3334C11.8883 3.3334 12.1003 3.42119 12.2566 3.57747C12.4128 3.73375 12.5006 3.94571 12.5006 4.16673C12.5006 4.38774 12.4128 4.5997 12.2566 4.75598C12.1003 4.91226 11.8883 5.00006 11.6673 5.00006C10.7832 5.00006 9.93539 5.35125 9.31027 5.97637C8.68515 6.60149 8.33396 7.44934 8.33396 8.3334C8.44896 12.7292 14.8865 12.7284 15.0006 8.3334C15.0006 8.11238 15.0884 7.90042 15.2447 7.74414C15.401 7.58786 15.6129 7.50006 15.834 7.50006C16.055 7.50006 16.2669 7.58786 16.4232 7.74414C16.5795 7.90042 16.6673 8.11238 16.6673 8.3334Z" fill="#A9A9A9"/>
</svg>
