<svg width="18" height="20" viewBox="0 0 18 20" fill="none" xmlns="http://www.w3.org/2000/svg">
<path d="M16.4998 19.1667C16.4998 19.6275 16.1265 20 15.6665 20C15.2065 20 14.8332 19.6275 14.8332 19.1667C14.8332 17.3283 13.3382 15.8333 11.4998 15.8333H6.49984C4.6615 15.8333 3.1665 17.3283 3.1665 19.1667C3.1665 19.6275 2.79317 20 2.33317 20C1.87317 20 1.49984 19.6275 1.49984 19.1667C1.49984 16.4092 3.74234 14.1667 6.49984 14.1667H11.4998C14.2573 14.1667 16.4998 16.4092 16.4998 19.1667ZM17.3332 6.25V7.91667C17.3332 8.60583 16.7723 9.16667 16.0832 9.16667H15.6665C15.6665 11.005 14.1715 12.5 12.3332 12.5H5.6665C3.82817 12.5 2.33317 11.005 2.33317 9.16667H1.9165C1.22734 9.16667 0.666504 8.60583 0.666504 7.91667V6.25C0.666504 5.56083 1.22734 5 1.9165 5H2.33317C2.33317 3.16167 3.82817 1.66667 5.6665 1.66667H8.1665V0.833333C8.1665 0.3725 8.53984 0 8.99984 0C9.45984 0 9.83317 0.3725 9.83317 0.833333V1.66667H12.3332C14.1715 1.66667 15.6665 3.16167 15.6665 5H16.0832C16.7723 5 17.3332 5.56083 17.3332 6.25ZM13.9998 5C13.9998 4.08083 13.2523 3.33333 12.3332 3.33333H5.6665C4.74734 3.33333 3.99984 4.08083 3.99984 5V9.16667C3.99984 10.0858 4.74734 10.8333 5.6665 10.8333H12.3332C13.2523 10.8333 13.9998 10.0858 13.9998 9.16667V5ZM6.9165 5.83333C6.2265 5.83333 5.6665 6.39333 5.6665 7.08333C5.6665 7.77333 6.2265 8.33333 6.9165 8.33333C7.6065 8.33333 8.1665 7.77333 8.1665 7.08333C8.1665 6.39333 7.6065 5.83333 6.9165 5.83333ZM11.0832 5.83333C10.3932 5.83333 9.83317 6.39333 9.83317 7.08333C9.83317 7.77333 10.3932 8.33333 11.0832 8.33333C11.7732 8.33333 12.3332 7.77333 12.3332 7.08333C12.3332 6.39333 11.7732 5.83333 11.0832 5.83333Z" fill="#A9A9A9"/>
</svg>
